<?xml version="1.0" encoding="UTF-8" standalone="no" ?>
<!DOCTYPE svg PUBLIC "-//W3C//DTD SVG 1.1//EN" "http://www.w3.org/Graphics/SVG/1.1/DTD/svg11.dtd">
<svg xmlns="http://www.w3.org/2000/svg" xmlns:xlink="http://www.w3.org/1999/xlink" version="1.1" width="1080" height="1080" viewBox="0 0 1080 1080" xml:space="preserve">
<desc>Created with Fabric.js 3.6.6</desc>
<g transform="matrix(1.49 0 0 1.49 539.96 540.2)" >
<g>
<g transform="matrix(25 0 0 25 7.37 5.02)">
<path style="stroke: none; stroke-width: 1; stroke-dasharray: none; stroke-linecap: butt; stroke-dashoffset: 0; stroke-linejoin: miter; stroke-miterlimit: 4; fill: rgb(204,204,204); fill-rule: nonzero; opacity: 1;"  transform=" translate(-16.29, -16.2)" d="M 14.486 20.381 a 17.345 17.345 0 0 1 -0.046 3.133 a 0.835 0.835 0 0 1 -0.439 0.709 c -0.831 0.617 -3.616 0.765 -3.963 -0.546 c -0.128 -0.005 -0.026 -0.429 -0.148 -0.413 a 1.561 1.561 0 0 1 -1.2 -0.735 c 0.005 -1.434 0.163 -6.607 -2.4 -5.214 a 2.506 2.506 0 0 0 -1.168 1.429 a 4.91 4.91 0 0 0 -0.24 1.643 c -0.02 0.714 0.158 1.495 0.184 2.352 c 0.01 0.383 0.071 0.48 -0.214 0.806 c -0.459 0.525 -1.26 0.082 -1.693 -0.495 a 1.893 1.893 0 0 1 -0.291 -0.969 a 31.065 31.065 0 0 1 1 -11.148 c 0.367 -1.23 0.495 -1.408 1.663 -1.684 a 12.948 12.948 0 0 1 4.05 -0.24 c 1.051 -0.342 3.545 -2.194 4.621 -0.724 a 12.527 12.527 0 0 1 9.579 1.75 a 37.083 37.083 0 0 0 4.259 0.077 c 0.2 -0.128 0.434 -0.265 0.638 -0.383 a 1.381 1.381 0 0 1 0.495 -0.209 c 0.23 -0.036 0.53 -0.046 0.6 0.24 a 3.292 3.292 0 0 1 0.061 0.893 a 0.808 0.808 0 0 1 -0.643 0.76 a 4.02 4.02 0 0 1 -1.148 -0.372 c -1.3 0.036 -2.1 -0.036 -3.4 0 c 0.209 0.224 0.2 0.372 0.352 0.668 a 6.381 6.381 0 0 1 -0.775 5.979 c -0.092 1.49 0.02 2.995 0.031 4.49 c 0.005 0.515 0.041 1.005 -0.444 1.347 a 3.263 3.263 0 0 1 -2.867 0.24 a 2.523 2.523 0 0 1 -0.668 -0.556 a 2.807 2.807 0 0 1 -0.5 0.01 a 1.213 1.213 0 0 1 -0.689 -0.505 a 3.606 3.606 0 0 1 -0.235 -0.525 c 0 -0.7 -0.026 -0.974 -0.026 -1.673 a 10.67 10.67 0 0 1 -4.346 -0.122 Z" stroke-linecap="round" />
</g>
<g transform="matrix(25 0 0 25 7.44 5.01)" >
<path style="stroke: none; stroke-width: 1; stroke-dasharray: none; stroke-linecap: butt; stroke-dashoffset: 0; stroke-linejoin: miter; stroke-miterlimit: 4; fill: rgb(204,204,204); fill-rule: nonzero; opacity: 1;"  transform=" translate(-16.29, -16.2)" d="M 12.095 24.839 a 3.748 3.748 0 0 1 -1.217 -0.184 a 1.452 1.452 0 0 1 -0.972 -0.864 a 0.46 0.46 0 0 1 -0.1 -0.322 l 0 -0.045 a 1.8 1.8 0 0 1 -1.25 -0.811 l -0.024 -0.039 l 0 -0.26 c 0.009 -1.182 0.032 -4.323 -1.034 -4.962 a 1.1 1.1 0 0 0 -1.128 0.1 a 2.356 2.356 0 0 0 -1.1 1.349 a 4.783 4.783 0 0 0 -0.228 1.588 a 8.525 8.525 0 0 0 0.085 1.2 c 0.043 0.366 0.087 0.746 0.1 1.145 c 0 0.059 0 0.11 0.007 0.156 a 0.849 0.849 0 0 1 -0.26 0.76 a 0.817 0.817 0 0 1 -0.665 0.288 a 1.849 1.849 0 0 1 -1.276 -0.792 a 1.973 1.973 0 0 1 -0.322 -1.053 A 31.068 31.068 0 0 1 3.719 10.887 c 0.375 -1.255 0.54 -1.5 1.779 -1.793 a 13.117 13.117 0 0 1 4.068 -0.247 a 8.378 8.378 0 0 0 0.875 -0.4 c 1.232 -0.616 2.91 -1.453 3.831 -0.334 a 12.633 12.633 0 0 1 9.567 1.768 A 36.054 36.054 0 0 0 28 9.953 c 0.2 -0.123 0.412 -0.251 0.606 -0.363 l 0.056 -0.032 a 1.366 1.366 0 0 1 0.494 -0.2 c 0.444 -0.069 0.7 0.053 0.777 0.361 a 3.477 3.477 0 0 1 0.065 0.939 a 0.97 0.97 0 0 1 -0.791 0.909 l -0.026 0 l -0.025 -0.007 c -0.085 -0.022 -0.171 -0.042 -0.26 -0.062 A 3.127 3.127 0 0 1 28 11.2 c -0.633 0.016 -1.155 0.007 -1.659 0 c -0.433 -0.007 -0.878 -0.015 -1.394 -0.007 c 0.032 0.063 0.055 0.124 0.08 0.186 a 2.467 2.467 0 0 0 0.112 0.256 a 6.533 6.533 0 0 1 -0.761 6.126 c -0.056 0.966 -0.027 1.957 0 2.916 c 0.015 0.491 0.03 1 0.033 1.5 v 0.086 a 1.448 1.448 0 0 1 -0.513 1.393 a 3.4 3.4 0 0 1 -3.02 0.257 a 1.8 1.8 0 0 1 -0.564 -0.437 c -0.035 -0.036 -0.07 -0.072 -0.106 -0.106 c -0.049 0 -0.1 0.006 -0.145 0.011 a 0.952 0.952 0 0 1 -0.33 -0.006 a 1.375 1.375 0 0 1 -0.783 -0.571 a 1.779 1.779 0 0 1 -0.171 -0.361 c -0.023 -0.061 -0.047 -0.123 -0.076 -0.188 l -0.014 -0.031 v -0.034 c 0 -0.347 -0.006 -0.594 -0.013 -0.832 c -0.005 -0.2 -0.01 -0.4 -0.012 -0.659 a 10.815 10.815 0 0 1 -4 -0.092 a 17.55 17.55 0 0 1 -0.065 2.931 a 0.984 0.984 0 0 1 -0.5 0.813 A 3.748 3.748 0 0 1 12.095 24.839 Z m -1.969 -1.318 h 0.036 l 0.03 0.114 a 1.106 1.106 0 0 0 0.791 0.718 a 3.912 3.912 0 0 0 2.922 -0.259 a 0.687 0.687 0 0 0 0.375 -0.6 a 17.157 17.157 0 0 0 0.055 -2.976 l -0.085 -0.024 L 14.6 19.8 l 0.041 0.463 a 10.678 10.678 0 0 0 4.169 0.088 l 0.181 -0.024 v 0.182 c 0 0.347 0.006 0.594 0.013 0.832 s 0.012 0.473 0.013 0.807 c 0.025 0.059 0.047 0.116 0.069 0.171 a 1.524 1.524 0 0 0 0.139 0.3 a 1.057 1.057 0 0 0 0.6 0.44 a 0.729 0.729 0 0 0 0.216 0 a 1.888 1.888 0 0 1 0.244 -0.013 l 0.06 0 l 0.044 0.041 c 0.054 0.05 0.108 0.105 0.162 0.16 a 1.537 1.537 0 0 0 0.46 0.366 a 3.1 3.1 0 0 0 2.712 -0.224 c 0.388 -0.274 0.383 -0.65 0.377 -1.127 v -0.087 c 0 -0.5 -0.018 -1 -0.033 -1.492 c -0.029 -0.987 -0.059 -2.008 0 -3.009 l 0 -0.066 l 0.05 -0.044 a 6.184 6.184 0 0 0 0.739 -5.785 a 2.755 2.755 0 0 1 -0.126 -0.287 a 0.911 0.911 0 0 0 -0.2 -0.346 l -0.241 -0.259 l 0.353 -0.01 c 0.654 -0.018 1.188 -0.009 1.706 0 s 1.045 0.018 1.691 0 h 0.047 l 0.04 0.025 a 2.716 2.716 0 0 0 0.835 0.289 c 0.082 0.019 0.163 0.037 0.242 0.057 a 0.671 0.671 0 0 0 0.471 -0.609 a 3.141 3.141 0 0 0 -0.058 -0.847 c -0.014 -0.061 -0.041 -0.176 -0.416 -0.117 a 1.065 1.065 0 0 0 -0.384 0.158 l -0.056 0.032 c -0.2 0.114 -0.429 0.253 -0.631 0.379 l -0.037 0.023 h -0.043 a 36.326 36.326 0 0 1 -4.278 -0.077 l -0.042 0 l -0.035 -0.024 a 12.347 12.347 0 0 0 -9.461 -1.725 l -0.1 0.018 l -0.059 -0.08 c -0.747 -1.02 -2.334 -0.227 -3.493 0.352 a 7.889 7.889 0 0 1 -0.95 0.43 l -0.032 0.01 l -0.033 0 a 12.792 12.792 0 0 0 -4 0.236 c -1.121 0.264 -1.2 0.4 -1.547 1.574 a 30.75 30.75 0 0 0 -1 11.09 a 1.683 1.683 0 0 0 0.258 0.884 a 1.551 1.551 0 0 0 1.033 0.666 a 0.5 0.5 0 0 0 0.413 -0.179 a 0.552 0.552 0 0 0 0.182 -0.532 c 0 -0.049 -0.006 -0.1 -0.007 -0.164 c -0.011 -0.386 -0.055 -0.758 -0.1 -1.118 a 8.754 8.754 0 0 1 -0.087 -1.243 a 5.022 5.022 0 0 1 0.251 -1.7 a 2.67 2.67 0 0 1 1.24 -1.509 a 1.4 1.4 0 0 1 1.444 -0.1 c 1.223 0.733 1.2 3.89 1.19 5.238 v 0.167 a 1.4 1.4 0 0 0 1.028 0.622 a 0.2 0.2 0 0 1 0.15 0.045 a 0.4 0.4 0 0 1 0.1 0.3 C 10.123 23.471 10.124 23.5 10.126 23.521 Z m -0.216 -0.1 h 0 Z" stroke-linecap="round" />
</g>
<g transform="matrix(25 0 0 25 -7.5 -4.98)" >
<path style="stroke: none; stroke-width: 1; stroke-dasharray: none; stroke-linecap: butt; stroke-dashoffset: 0; stroke-linejoin: miter; stroke-miterlimit: 4; fill: rgb(55,52,53); fill-rule: nonzero; opacity: 1;"  transform=" translate(-15.69, -15.8)" d="M 13.891 19.981 a 17.345 17.345 0 0 1 -0.046 3.133 a 0.835 0.835 0 0 1 -0.439 0.709 c -0.831 0.617 -3.616 0.765 -3.963 -0.546 c -0.128 -0.005 -0.026 -0.429 -0.148 -0.413 a 1.561 1.561 0 0 1 -1.2 -0.735 c 0.005 -1.434 0.163 -6.607 -2.4 -5.214 a 2.506 2.506 0 0 0 -1.168 1.429 a 4.91 4.91 0 0 0 -0.24 1.643 c -0.02 0.714 0.158 1.495 0.184 2.352 c 0.01 0.383 0.071 0.48 -0.214 0.806 c -0.459 0.525 -1.26 0.082 -1.693 -0.495 a 1.893 1.893 0 0 1 -0.291 -0.969 a 31.065 31.065 0 0 1 1 -11.148 c 0.367 -1.23 0.495 -1.408 1.663 -1.684 a 12.948 12.948 0 0 1 4.05 -0.24 c 1.051 -0.342 3.545 -2.194 4.621 -0.724 a 12.527 12.527 0 0 1 9.579 1.75 a 37.083 37.083 0 0 0 4.259 0.077 c 0.2 -0.128 0.434 -0.265 0.638 -0.383 a 1.381 1.381 0 0 1 0.495 -0.209 c 0.23 -0.036 0.53 -0.046 0.6 0.24 a 3.292 3.292 0 0 1 0.061 0.893 a 0.808 0.808 0 0 1 -0.643 0.76 a 4.02 4.02 0 0 1 -1.148 -0.372 c -1.3 0.036 -2.1 -0.036 -3.4 0 c 0.209 0.224 0.2 0.372 0.352 0.668 a 6.381 6.381 0 0 1 -0.775 5.979 c -0.092 1.49 0.02 2.995 0.031 4.49 c 0.005 0.515 0.041 1.005 -0.444 1.347 a 3.263 3.263 0 0 1 -2.867 0.24 a 2.523 2.523 0 0 1 -0.668 -0.556 a 2.807 2.807 0 0 1 -0.5 0.01 a 1.213 1.213 0 0 1 -0.689 -0.505 a 3.606 3.606 0 0 1 -0.235 -0.525 c 0 -0.7 -0.026 -0.974 -0.026 -1.673 a 10.67 10.67 0 0 1 -4.346 -0.122 Z" stroke-linecap="round" />
</g>
<g transform="matrix(25 0 0 25 -7.5 -5)" >
<path style="stroke: none; stroke-width: 1; stroke-dasharray: none; stroke-linecap: butt; stroke-dashoffset: 0; stroke-linejoin: miter; stroke-miterlimit: 4; fill: rgb(55,52,53); fill-rule: nonzero; opacity: 1;"  transform=" translate(-15.69, -15.8)" d="M 11.5 24.439 a 3.748 3.748 0 0 1 -1.217 -0.184 a 1.452 1.452 0 0 1 -0.972 -0.864 a 0.46 0.46 0 0 1 -0.1 -0.322 l 0 -0.045 a 1.8 1.8 0 0 1 -1.25 -0.811 l -0.024 -0.039 l 0 -0.26 c 0.009 -1.182 0.032 -4.323 -1.034 -4.962 a 1.1 1.1 0 0 0 -1.128 0.1 a 2.356 2.356 0 0 0 -1.1 1.349 a 4.783 4.783 0 0 0 -0.228 1.588 a 8.522 8.522 0 0 0 0.085 1.2 c 0.043 0.367 0.087 0.746 0.1 1.146 c 0 0.059 0 0.11 0.007 0.156 a 0.849 0.849 0 0 1 -0.26 0.76 a 0.816 0.816 0 0 1 -0.665 0.288 a 1.849 1.849 0 0 1 -1.276 -0.792 a 1.974 1.974 0 0 1 -0.322 -1.053 A 31.068 31.068 0 0 1 3.124 10.487 c 0.375 -1.255 0.54 -1.5 1.779 -1.793 a 13.115 13.115 0 0 1 4.068 -0.247 a 8.378 8.378 0 0 0 0.875 -0.4 c 1.232 -0.616 2.91 -1.454 3.831 -0.334 a 12.634 12.634 0 0 1 9.567 1.769 a 36.037 36.037 0 0 0 4.156 0.074 c 0.195 -0.121 0.413 -0.252 0.606 -0.363 l 0.056 -0.032 a 1.366 1.366 0 0 1 0.494 -0.2 c 0.444 -0.069 0.7 0.053 0.777 0.361 a 3.476 3.476 0 0 1 0.065 0.939 a 0.97 0.97 0 0 1 -0.791 0.909 l -0.026 0 l -0.025 -0.007 c -0.085 -0.022 -0.171 -0.042 -0.26 -0.062 a 3.127 3.127 0 0 1 -0.889 -0.3 c -0.633 0.016 -1.155 0.007 -1.659 0 c -0.433 -0.007 -0.878 -0.015 -1.394 -0.007 c 0.032 0.063 0.055 0.124 0.08 0.186 a 2.467 2.467 0 0 0 0.112 0.256 a 6.534 6.534 0 0 1 -0.761 6.126 c -0.056 0.966 -0.027 1.957 0 2.915 c 0.014 0.492 0.029 1 0.033 1.5 v 0.086 a 1.448 1.448 0 0 1 -0.512 1.393 a 3.4 3.4 0 0 1 -3.02 0.257 a 1.8 1.8 0 0 1 -0.564 -0.437 c -0.035 -0.036 -0.07 -0.072 -0.106 -0.106 c -0.049 0 -0.1 0.006 -0.145 0.011 a 0.95 0.95 0 0 1 -0.33 -0.006 a 1.375 1.375 0 0 1 -0.783 -0.571 a 1.769 1.769 0 0 1 -0.171 -0.361 c -0.023 -0.061 -0.047 -0.123 -0.076 -0.188 l -0.014 -0.031 v -0.034 c 0 -0.347 -0.006 -0.594 -0.013 -0.832 c -0.005 -0.2 -0.011 -0.4 -0.012 -0.659 a 10.817 10.817 0 0 1 -4 -0.092 A 17.56 17.56 0 0 1 14 23.135 a 0.984 0.984 0 0 1 -0.5 0.813 A 3.748 3.748 0 0 1 11.5 24.439 Z M 9.531 23.121 h 0.036 l 0.03 0.114 a 1.106 1.106 0 0 0 0.791 0.718 a 3.911 3.911 0 0 0 2.922 -0.259 a 0.687 0.687 0 0 0 0.375 -0.6 a 17.162 17.162 0 0 0 0.055 -2.976 l -0.085 -0.024 L 14 19.405 l 0.041 0.463 a 10.679 10.679 0 0 0 4.169 0.088 l 0.181 -0.024 v 0.182 c 0 0.347 0.006 0.594 0.013 0.832 s 0.012 0.473 0.013 0.807 c 0.025 0.059 0.047 0.116 0.069 0.172 a 1.514 1.514 0 0 0 0.139 0.3 a 1.057 1.057 0 0 0 0.6 0.44 a 0.722 0.722 0 0 0 0.216 0 a 1.888 1.888 0 0 1 0.244 -0.013 l 0.06 0 l 0.044 0.041 c 0.054 0.05 0.108 0.1 0.162 0.16 a 1.539 1.539 0 0 0 0.46 0.366 a 3.1 3.1 0 0 0 2.712 -0.224 c 0.388 -0.274 0.383 -0.65 0.377 -1.127 v -0.087 c 0 -0.5 -0.018 -1 -0.033 -1.493 c -0.029 -0.987 -0.059 -2.007 0 -3.008 l 0 -0.066 l 0.05 -0.044 a 6.185 6.185 0 0 0 0.739 -5.785 a 2.755 2.755 0 0 1 -0.126 -0.287 a 0.911 0.911 0 0 0 -0.2 -0.346 l -0.241 -0.259 l 0.353 -0.01 c 0.654 -0.018 1.188 -0.009 1.706 0 s 1.045 0.018 1.691 0 h 0.047 l 0.04 0.025 a 2.716 2.716 0 0 0 0.835 0.289 c 0.082 0.019 0.163 0.037 0.242 0.057 a 0.671 0.671 0 0 0 0.471 -0.609 a 3.144 3.144 0 0 0 -0.058 -0.847 c -0.014 -0.061 -0.041 -0.175 -0.416 -0.117 a 1.064 1.064 0 0 0 -0.384 0.158 l -0.057 0.032 c -0.2 0.115 -0.431 0.254 -0.631 0.379 L 27.5 9.87 h -0.043 a 36.353 36.353 0 0 1 -4.278 -0.077 l -0.042 0 L 23.1 9.767 a 12.347 12.347 0 0 0 -9.461 -1.725 l -0.1 0.018 l -0.059 -0.08 c -0.747 -1.02 -2.334 -0.227 -3.493 0.352 a 7.889 7.889 0 0 1 -0.95 0.43 l -0.032 0.01 l -0.033 0 a 12.788 12.788 0 0 0 -4 0.236 c -1.121 0.264 -1.2 0.4 -1.547 1.574 a 30.75 30.75 0 0 0 -1 11.09 a 1.683 1.683 0 0 0 0.258 0.884 a 1.551 1.551 0 0 0 1.033 0.666 a 0.493 0.493 0 0 0 0.413 -0.179 a 0.552 0.552 0 0 0 0.182 -0.532 c 0 -0.049 -0.006 -0.1 -0.007 -0.164 c -0.011 -0.386 -0.055 -0.758 -0.1 -1.118 a 8.743 8.743 0 0 1 -0.087 -1.243 a 5.022 5.022 0 0 1 0.251 -1.7 a 2.67 2.67 0 0 1 1.24 -1.509 a 1.4 1.4 0 0 1 1.444 -0.1 c 1.223 0.733 1.2 3.89 1.19 5.238 v 0.167 A 1.4 1.4 0 0 0 9.28 22.7 a 0.2 0.2 0 0 1 0.15 0.045 a 0.4 0.4 0 0 1 0.1 0.3 C 9.528 23.071 9.529 23.1 9.531 23.121 Z m -0.216 -0.1 h 0 Z" stroke-linecap="round" />
</g>
<g transform="matrix(25 0 0 25 77.32 128.26)" >
<path style="stroke: none; stroke-width: 1; stroke-dasharray: none; stroke-linecap: butt; stroke-dashoffset: 0; stroke-linejoin: miter; stroke-miterlimit: 4; fill: rgb(105,120,171); fill-rule: nonzero; opacity: 1;"  transform=" translate(-19.09, -21.13)" d="M 18.572 19.946 a 4.782 4.782 0 0 0 0.946 -0.189 a 11.582 11.582 0 0 1 0.137 2.749 a 1.177 1.177 0 0 1 -1.134 -0.663 A 8.774 8.774 0 0 1 18.572 19.946 Z" stroke-linecap="round" />
</g>
<g transform="matrix(25 0 0 25 77.37 127.67)" >
<path style="stroke: none; stroke-width: 1; stroke-dasharray: none; stroke-linecap: butt; stroke-dashoffset: 0; stroke-linejoin: miter; stroke-miterlimit: 4; fill: rgb(55,52,53); fill-rule: nonzero; opacity: 1;"  transform=" translate(-19.09, -21.11)" d="M 19.622 22.666 a 1.33 1.33 0 0 1 -1.242 -0.749 l -0.015 -0.028 l 0 -0.032 a 8.978 8.978 0 0 1 0.052 -1.932 l 0.016 -0.124 l 0.124 -0.014 a 4.7 4.7 0 0 0 0.915 -0.182 l 0.164 -0.053 l 0.04 0.168 a 10.177 10.177 0 0 1 0.147 2.484 l -0.008 0.459 l -0.154 0 Z m -0.944 -0.87 a 1 1 0 0 0 0.821 0.545 l 0 -0.144 a 10.985 10.985 0 0 0 -0.1 -2.238 a 5.036 5.036 0 0 1 -0.683 0.13 A 8.609 8.609 0 0 0 18.677 21.8 Z" stroke-linecap="round" />
</g>
<g transform="matrix(25 0 0 25 -7.78 -3.55)" >
<linearGradient id="SVGID_a_5" gradientUnits="userSpaceOnUse" gradientTransform="matrix(247.64 0 0 -153.76 33318.95 -31686.7)"  x1="-134.514" y1="-206.113" x2="-134.455" y2="-206.235">
<stop offset="0%" style="stop-color:rgb(138,159,224);stop-opacity: 1"/>
<stop offset="58.8%" style="stop-color:rgb(113,130,184);stop-opacity: 1"/>
<stop offset="100%" style="stop-color:rgb(87,100,144);stop-opacity: 1"/>
</linearGradient>
<path style="stroke: none; stroke-width: 1; stroke-dasharray: none; stroke-linecap: butt; stroke-dashoffset: 0; stroke-linejoin: miter; stroke-miterlimit: 4; fill: url(#SVGID_a_5); fill-rule: nonzero; opacity: 1;"  transform=" translate(-15.68, -15.86)" d="M 4.052 22.683 c -0.225 -1.474 -0.454 -4.075 0.6 -5.315 a 3.452 3.452 0 0 1 0.27 -0.321 c 1.663 -1.566 3.112 -0.219 3.505 1.515 a 27.314 27.314 0 0 1 0.051 3.295 a 1.109 1.109 0 0 0 1.051 0.6 c 0.153 0.316 0.112 0.551 0.286 0.76 a 2.5 2.5 0 0 0 2.7 0.694 a 8.441 8.441 0 0 0 0.913 -0.454 a 10.14 10.14 0 0 0 -0.1 -4.045 c 0 -0.184 -0.061 -0.306 -0.061 -0.49 a 0.626 0.626 0 0 1 0.311 0.138 c -0.2 0.734 2.556 1.239 5.771 0.352 c 0.036 -0.128 -0.026 -0.286 0.051 -0.332 a 0.4 0.4 0 0 1 0.337 -0.041 c 0.015 0.235 0.02 0.464 0.036 0.7 a 4.654 4.654 0 0 0 0.75 0.01 a 0.838 0.838 0 0 1 -0.6 0.214 c 0.056 0 -0.031 0.107 0.02 0.117 c 0.148 0.036 0.429 -0.02 0.546 0.031 c -0.219 0.128 -0.464 0.056 -0.612 0.2 c 0.036 0.78 0.056 1.617 0.087 2.4 a 2.591 2.591 0 0 0 3.311 -0.148 a 28.633 28.633 0 0 0 -0.1 -4.7 c -0.117 -0.015 -0.235 -0.036 -0.352 -0.051 c 1.827 -2.458 2.179 -4.973 0.648 -7.243 c -0.015 -0.1 -0.082 -0.2 -0.1 -0.3 c 1.332 -0.051 2.7 0.087 4.036 0.036 a 6.478 6.478 0 0 0 1.112 0.311 c 0.393 -0.138 0.464 -1.229 0.077 -1.107 s -0.6 0.367 -1.015 0.52 c -1.531 0 -3.23 -0.061 -4.76 -0.061 a 9.5 9.5 0 0 0 -9 -1.551 a 8.371 8.371 0 0 1 0.26 6.427 c -0.087 0.286 -1.408 1.122 -0.327 0.209 c 1.092 -0.928 0.408 -7.375 -0.934 -7.386 a 6.327 6.327 0 0 0 -4.25 1.7 c -0.209 -0.224 -0.194 -0.133 -0.1 -0.449 a 9.863 9.863 0 0 0 -3.4 0.3 a 1.428 1.428 0 0 0 -1.3 0.949 a 33.949 33.949 0 0 0 -1.2 11.094 a 4.574 4.574 0 0 0 0.352 1.3 c 0.6 0.658 0.924 0.469 1.123 0.122 Z" stroke-linecap="round" />
</g>
<g transform="matrix(25 0 0 25 -253.91 -138.88)" >
<path style="stroke: none; stroke-width: 1; stroke-dasharray: none; stroke-linecap: butt; stroke-dashoffset: 0; stroke-linejoin: miter; stroke-miterlimit: 4; fill: rgb(55,52,53); fill-rule: nonzero; opacity: 1;"  transform=" translate(-5.84, -10.45)" d="M 6.446 10.422 a 2.187 2.187 0 0 0 -1.063 -0.149 a 0.144 0.144 0 0 0 -0.153 0.1 a 0.2 0.2 0 0 0 -0.02 0.154 c 0.031 0.087 0.036 0.082 0.112 0.1 a 0.648 0.648 0 0 0 0.3 -0.026 a 0.883 0.883 0 0 1 0.746 -0.036 c 0.112 -0.005 0.123 -0.051 0.087 -0.139 Z" stroke-linecap="round" />
</g>
<g transform="matrix(25 0 0 25 -253.96 -138.9)" >
<path style="stroke: none; stroke-width: 1; stroke-dasharray: none; stroke-linecap: butt; stroke-dashoffset: 0; stroke-linejoin: miter; stroke-miterlimit: 4; fill: rgb(55,52,53); fill-rule: nonzero; opacity: 1;"  transform=" translate(-5.84, -10.45)" d="M 5.406 10.791 a 0.566 0.566 0 0 1 -0.118 -0.012 l -0.013 0 a 0.246 0.246 0 0 1 -0.217 -0.2 a 0.367 0.367 0 0 1 0.031 -0.284 a 0.294 0.294 0 0 1 0.283 -0.18 a 2.335 2.335 0 0 1 1.1 0.149 h 0.082 l 0.041 0.1 a 0.237 0.237 0 0 1 -0.227 0.359 H 6.344 l -0.027 -0.008 a 0.722 0.722 0 0 0 -0.62 0.022 l -0.018 0.011 l -0.02 0.005 A 0.989 0.989 0 0 1 5.406 10.791 Z m -0.044 -0.323 a 0.5 0.5 0 0 0 0.2 -0.02 l 0.054 -0.027 c -0.07 0 -0.141 0 -0.213 0.011 H 5.377 l -0.006 0.012 A 0.075 0.075 0 0 0 5.362 10.468 Z" stroke-linecap="round" />
</g>
<g transform="matrix(25 0 0 25 -250 -101.12)" >
<path style="stroke: none; stroke-width: 1; stroke-dasharray: none; stroke-linecap: butt; stroke-dashoffset: 0; stroke-linejoin: miter; stroke-miterlimit: 4; fill: rgb(55,52,53); fill-rule: nonzero; opacity: 1;"  transform=" translate(-5.99, -11.96)" d="M 5.622 11.687 a 0.549 0.549 0 0 1 0.507 -0.311 c 0.02 -0.128 0 -0.2 -0.164 -0.2 a 1.535 1.535 0 0 0 -0.578 0.51 a 1.051 1.051 0 0 0 -0.077 0.6 a 0.538 0.538 0 0 0 0.2 0.352 a 0.666 0.666 0 0 0 0.752 -0.031 c 0.358 -0.209 0.716 -0.806 0.087 -1.031 a 0.963 0.963 0 0 0 -0.732 0.153 c -0.01 0.005 -0.015 -0.015 0 -0.041 Z" stroke-linecap="round" />
</g>
<g transform="matrix(25 0 0 25 -250.03 -101.04)" >
<path style="stroke: none; stroke-width: 1; stroke-dasharray: none; stroke-linecap: butt; stroke-dashoffset: 0; stroke-linejoin: miter; stroke-miterlimit: 4; fill: rgb(55,52,53); fill-rule: nonzero; opacity: 1;"  transform=" translate(-5.99, -11.96)" d="M 5.816 12.906 a 0.622 0.622 0 0 1 -0.408 -0.142 a 0.7 0.7 0 0 1 -0.256 -0.458 a 1.154 1.154 0 0 1 0.1 -0.7 a 1.7 1.7 0 0 1 0.635 -0.568 l 0.035 -0.021 H 5.96 a 0.338 0.338 0 0 1 0.269 0.095 a 0.348 0.348 0 0 1 0.058 0.289 h 0 a 0.683 0.683 0 0 1 0.564 0.524 a 0.975 0.975 0 0 1 -0.508 0.823 A 1.067 1.067 0 0 1 5.816 12.906 Z M 5.493 11.84 a 1.082 1.082 0 0 0 -0.024 0.432 a 0.38 0.38 0 0 0 0.145 0.248 c 0.193 0.161 0.506 -0.011 0.567 -0.047 a 0.674 0.674 0 0 0 0.352 -0.518 c -0.009 -0.1 -0.089 -0.172 -0.237 -0.225 a 0.824 0.824 0 0 0 -0.593 0.138 l -0.013 0.007 l -0.107 0.054 l -0.088 -0.089 Z" stroke-linecap="round" />
</g>
<g transform="matrix(25 0 0 25 -251.49 -96.89)" >
<path style="stroke: none; stroke-width: 1; stroke-dasharray: none; stroke-linecap: butt; stroke-dashoffset: 0; stroke-linejoin: miter; stroke-miterlimit: 4; fill: rgb(254,254,254); fill-rule: nonzero; opacity: 1;"  transform=" translate(-5.94, -12.13)" d="M 5.9 12.381 a 0.4 0.4 0 0 0 0.021 0.107 a 0.211 0.211 0 0 0 0.021 0.046 a 0.215 0.215 0 0 1 -0.2 0.02 c -0.221 -0.1 -0.205 -0.41 -0.092 -0.578 a 0.671 0.671 0 0 1 0.529 -0.292 c 0.118 0.061 0.154 0.118 0.092 0.133 a 0.337 0.337 0 0 0 -0.1 0.036 a 0.183 0.183 0 0 0 -0.1 0.113 c 0.051 0.015 0.077 0 0.123 0.02 v 0.159 a 0.24 0.24 0 0 0 -0.159 -0.02 c -0.1 0.031 -0.139 0.174 -0.139 0.261 Z" stroke-linecap="round" />
</g>
<g transform="matrix(25 0 0 25 -213.49 -25.96)" >
<path style="stroke: none; stroke-width: 1; stroke-dasharray: none; stroke-linecap: butt; stroke-dashoffset: 0; stroke-linejoin: miter; stroke-miterlimit: 4; fill: rgb(55,52,53); fill-rule: nonzero; opacity: 1;"  transform=" translate(-7.46, -14.96)" d="M 6.323 16.459 A 2.19 2.19 0 0 0 8 13.834 a 1.1 1.1 0 0 1 -0.511 -0.138 c -0.01 -0.066 -0.015 -0.133 -0.026 -0.2 c 0.414 0.2 1 0.26 0.924 -0.373 c 0.056 -0.015 0.143 -0.02 0.2 -0.036 c -0.02 0.444 -0.1 0.485 -0.373 0.674 a 3.01 3.01 0 0 1 -0.9 2.666 a 0.881 0.881 0 0 0 0.036 0.414 a 1.233 1.233 0 0 0 -1.026 -0.373 Z" stroke-linecap="round" />
</g>
<g transform="matrix(25 0 0 25 -213.38 -21.72)" >
<path style="stroke: none; stroke-width: 1; stroke-dasharray: none; stroke-linecap: butt; stroke-dashoffset: 0; stroke-linejoin: miter; stroke-miterlimit: 4; fill: rgb(55,52,53); fill-rule: nonzero; opacity: 1;"  transform=" translate(-7.46, -15.13)" d="M 7.632 17.391 l -0.4 -0.442 a 1.081 1.081 0 0 0 -0.906 -0.32 l -0.162 0 v -0.28 l 0.113 -0.045 a 2.02 2.02 0 0 0 1.584 -2.327 a 1.028 1.028 0 0 1 -0.458 -0.147 l -0.062 -0.039 L 7.33 13.72 c -0.005 -0.035 -0.01 -0.07 -0.014 -0.105 s -0.007 -0.062 -0.012 -0.094 l -0.046 -0.3 l 0.273 0.132 a 0.734 0.734 0 0 0 0.625 0.08 c 0.064 -0.045 0.088 -0.143 0.071 -0.291 l -0.015 -0.136 l 0.132 -0.036 a 0.994 0.994 0 0 1 0.119 -0.022 a 0.721 0.721 0 0 0 0.08 -0.014 l 0.212 -0.058 l -0.01 0.219 c -0.021 0.456 -0.121 0.571 -0.361 0.742 a 3.172 3.172 0 0 1 -0.925 2.669 a 0.941 0.941 0 0 0 0.035 0.252 Z m -0.7 -1.008 a 1.2 1.2 0 0 1 0.21 0.09 a 0.431 0.431 0 0 1 0.021 -0.1 l 0.011 -0.032 l 0.023 -0.025 q 0.128 -0.137 0.237 -0.275 A 2.643 2.643 0 0 1 6.932 16.383 Z" stroke-linecap="round" />
</g>
<g transform="matrix(25 0 0 25 143.94 157.99)" >
<path style="stroke: none; stroke-width: 1; stroke-dasharray: none; stroke-linecap: butt; stroke-dashoffset: 0; stroke-linejoin: miter; stroke-miterlimit: 4; fill: rgb(128,147,208); fill-rule: nonzero; opacity: 1;"  transform=" translate(-21.75, -22.32)" d="M 22.157 23.213 c -0.025 -0.377 -0.071 -0.708 -0.082 -1.086 c -0.025 -0.866 -0.683 -1.055 -0.719 -0.189 c -0.02 0.454 0 0.882 0 1.31 A 2.244 2.244 0 0 0 22.157 23.213 Z" stroke-linecap="round" />
</g>
<g transform="matrix(25 0 0 25 143.9 157.99)" >
<path style="stroke: none; stroke-width: 1; stroke-dasharray: none; stroke-linecap: butt; stroke-dashoffset: 0; stroke-linejoin: miter; stroke-miterlimit: 4; fill: rgb(55,52,53); fill-rule: nonzero; opacity: 1;"  transform=" translate(-21.75, -22.32)" d="M 21.739 23.32 c -0.1 0 -0.194 -0.006 -0.289 -0.012 L 21.3 23.3 v -0.05 c 0 -0.142 0 -0.283 0 -0.425 c 0 -0.286 -0.009 -0.582 0 -0.887 c 0.019 -0.453 0.2 -0.614 0.361 -0.614 h 0 c 0.213 0 0.447 0.283 0.463 0.8 c 0.006 0.231 0.026 0.442 0.046 0.665 c 0.013 0.136 0.025 0.274 0.035 0.418 l 0 0.043 l -0.041 0.012 A 1.523 1.523 0 0 1 21.739 23.32 Z M 21.41 23.2 l 0.048 0 a 1.993 1.993 0 0 0 0.643 -0.029 c -0.009 -0.128 -0.021 -0.251 -0.032 -0.372 c -0.021 -0.225 -0.04 -0.437 -0.047 -0.672 c -0.013 -0.431 -0.2 -0.7 -0.357 -0.7 h 0 c -0.108 0 -0.239 0.134 -0.255 0.512 c -0.014 0.3 -0.009 0.6 0 0.881 C 21.408 22.948 21.41 23.073 21.41 23.2 Z" stroke-linecap="round" />
</g>
<g transform="matrix(25 0 0 25 123.84 152.72)" >
<path style="stroke: none; stroke-width: 1; stroke-dasharray: none; stroke-linecap: butt; stroke-dashoffset: 0; stroke-linejoin: miter; stroke-miterlimit: 4; fill: rgb(128,147,208); fill-rule: nonzero; opacity: 1;"  transform=" translate(-20.95, -22.11)" d="M 21.368 23.257 a 6.358 6.358 0 0 1 -0.081 -1.317 c 0.056 -0.8 -0.7 -1.643 -0.751 -0.158 a 7.955 7.955 0 0 0 0.051 1.3 A 5.155 5.155 0 0 0 21.368 23.257 Z" stroke-linecap="round" />
</g>
<g transform="matrix(25 0 0 25 123.99 152.86)" >
<path style="stroke: none; stroke-width: 1; stroke-dasharray: none; stroke-linecap: butt; stroke-dashoffset: 0; stroke-linejoin: miter; stroke-miterlimit: 4; fill: rgb(55,52,53); fill-rule: nonzero; opacity: 1;"  transform=" translate(-20.95, -22.12)" d="M 21.429 23.321 l -0.069 -0.011 a 5.145 5.145 0 0 1 -0.79 -0.175 l -0.032 -0.011 l 0 -0.033 a 7.975 7.975 0 0 1 -0.051 -1.31 c 0.016 -0.479 0.1 -0.763 0.263 -0.845 a 0.221 0.221 0 0 1 0.234 0.023 a 1.2 1.2 0 0 1 0.361 0.985 A 5.475 5.475 0 0 0 21.4 23.1 Z m -0.794 -0.277 a 5 5 0 0 0 0.671 0.15 l -0.01 -0.083 a 5.645 5.645 0 0 1 -0.063 -1.174 a 1.1 1.1 0 0 0 -0.313 -0.889 a 0.119 0.119 0 0 0 -0.126 -0.018 c -0.055 0.028 -0.185 0.159 -0.206 0.754 A 7.9 7.9 0 0 0 20.635 23.044 Z" stroke-linecap="round" />
</g>
<g transform="matrix(25 0 0 25 105.32 146.11)" >
<path style="stroke: none; stroke-width: 1; stroke-dasharray: none; stroke-linecap: butt; stroke-dashoffset: 0; stroke-linejoin: miter; stroke-miterlimit: 4; fill: rgb(128,147,208); fill-rule: nonzero; opacity: 1;"  transform=" translate(-20.21, -21.85)" d="M 20.588 23.15 l -0.107 -1.7 c -0.077 -1.269 -0.587 -1.121 -0.628 -0.076 c -0.02 0.494 0.02 0.764 -0.026 1.259 c 0.24 0.163 0.49 0.484 0.761 0.51 Z" stroke-linecap="round" />
</g>
<g transform="matrix(25 0 0 25 105.2 146.13)" >
<path style="stroke: none; stroke-width: 1; stroke-dasharray: none; stroke-linecap: butt; stroke-dashoffset: 0; stroke-linejoin: miter; stroke-miterlimit: 4; fill: rgb(55,52,53); fill-rule: nonzero; opacity: 1;"  transform=" translate(-20.2, -21.85)" d="M 20.583 23.2 a 1.1 1.1 0 0 1 -0.555 -0.331 a 2.5 2.5 0 0 0 -0.23 -0.188 l -0.026 -0.018 l 0 -0.031 a 6.217 6.217 0 0 0 0.021 -0.72 c 0 -0.162 0 -0.329 0 -0.536 c 0.021 -0.533 0.162 -0.879 0.359 -0.881 h 0 c 0.2 0 0.338 0.357 0.374 0.956 l 0.107 1.7 h 0 v 0 l -0.054 0 Z m -0.7 -0.589 c 0.072 0.052 0.144 0.116 0.215 0.178 a 1.28 1.28 0 0 0 0.432 0.293 l -0.1 -1.624 c -0.038 -0.629 -0.181 -0.856 -0.268 -0.856 h 0 c -0.09 0 -0.233 0.249 -0.253 0.779 c -0.009 0.2 -0.006 0.371 0 0.531 A 6.444 6.444 0 0 1 19.883 22.609 Z" stroke-linecap="round" />
</g>
<g transform="matrix(25 0 0 25 -113.95 176.09)" >
<path style="stroke: none; stroke-width: 1; stroke-dasharray: none; stroke-linecap: butt; stroke-dashoffset: 0; stroke-linejoin: miter; stroke-miterlimit: 4; fill: rgb(128,147,208); fill-rule: nonzero; opacity: 1;"  transform=" translate(-11.44, -23.05)" d="M 11.865 24.028 a 7.005 7.005 0 0 0 -0.061 -1.191 c -0.214 -0.92 -0.484 -1.033 -0.8 -0.353 v 1.528 a 3.474 3.474 0 0 0 0.862 0.01 Z" stroke-linecap="round" />
</g>
<g transform="matrix(25 0 0 25 -114.08 176.11)" >
<path style="stroke: none; stroke-width: 1; stroke-dasharray: none; stroke-linecap: butt; stroke-dashoffset: 0; stroke-linejoin: miter; stroke-miterlimit: 4; fill: rgb(55,52,53); fill-rule: nonzero; opacity: 1;"  transform=" translate(-11.43, -23.05)" d="M 11.542 24.1 c -0.166 0 -0.332 -0.015 -0.495 -0.03 l -0.1 -0.009 l 0 -1.6 c 0.153 -0.329 0.3 -0.482 0.448 -0.466 c 0.182 0.019 0.326 0.282 0.453 0.829 l 0.01 0.087 a 6.605 6.605 0 0 1 0.053 1.118 h -0.052 l 0.007 0.046 A 2.073 2.073 0 0 1 11.542 24.1 Z m -0.486 -0.136 h 0 a 3.437 3.437 0 0 0 0.757 0.013 a 6.638 6.638 0 0 0 -0.054 -1.053 l -0.009 -0.081 c -0.146 -0.627 -0.288 -0.734 -0.359 -0.741 c -0.055 0 -0.168 0.039 -0.335 0.395 Z" stroke-linecap="round" />
</g>
<g transform="matrix(25 0 0 25 -134.1 169.66)" >
<path style="stroke: none; stroke-width: 1; stroke-dasharray: none; stroke-linecap: butt; stroke-dashoffset: 0; stroke-linejoin: miter; stroke-miterlimit: 4; fill: rgb(128,147,208); fill-rule: nonzero; opacity: 1;"  transform=" translate(-10.63, -22.79)" d="M 10.3 23.776 c 0.005 -0.586 0.01 -0.974 0.01 -1.56 c 0.214 -0.862 0.433 -0.775 0.647 0.26 c 0.005 0.556 0.01 0.918 0.01 1.473 a 1.647 1.647 0 0 1 -0.673 -0.173 Z" stroke-linecap="round" />
</g>
<g transform="matrix(25 0 0 25 -136.04 169.68)" >
<path style="stroke: none; stroke-width: 1; stroke-dasharray: none; stroke-linecap: butt; stroke-dashoffset: 0; stroke-linejoin: miter; stroke-miterlimit: 4; fill: rgb(55,52,53); fill-rule: nonzero; opacity: 1;"  transform=" translate(-10.55, -22.79)" d="M 11.017 24.009 l -0.09 -0.01 a 1.627 1.627 0 0 1 -0.663 -0.177 l -0.175 -0.1 h 0.154 l 0 -0.3 c 0 -0.41 0.007 -0.749 0.007 -1.211 l 0 -0.013 c 0.108 -0.434 0.214 -0.628 0.345 -0.628 h 0 c 0.1 0 0.241 0.105 0.4 0.89 l 0 0.346 c 0 0.385 0.007 0.7 0.007 1.139 Z m -0.667 -0.262 a 1.517 1.517 0 0 0 0.561 0.142 c 0 -0.406 0 -0.711 -0.007 -1.078 l 0 -0.335 c -0.157 -0.753 -0.277 -0.794 -0.3 -0.794 s -0.109 0.012 -0.241 0.54 c 0 0.459 0 0.8 -0.007 1.206 Z" stroke-linecap="round" />
</g>
<g transform="matrix(25 0 0 25 -166.69 136.23)" >
<path style="stroke: none; stroke-width: 1; stroke-dasharray: none; stroke-linecap: butt; stroke-dashoffset: 0; stroke-linejoin: miter; stroke-miterlimit: 4; fill: rgb(128,147,208); fill-rule: nonzero; opacity: 1;"  transform=" translate(-9.33, -21.45)" d="M 9.5 22.623 c 0.031 -0.49 0.133 -0.985 0.163 -1.475 c -0.2 -0.97 -0.418 -1.143 -0.647 -0.51 c -0.01 0.628 -0.015 1.261 -0.025 1.889 a 0.711 0.711 0 0 0 0.51 0.1 Z" stroke-linecap="round" />
</g>
<g transform="matrix(25 0 0 25 -166.64 136.35)" >
<path style="stroke: none; stroke-width: 1; stroke-dasharray: none; stroke-linecap: butt; stroke-dashoffset: 0; stroke-linejoin: miter; stroke-miterlimit: 4; fill: rgb(55,52,53); fill-rule: nonzero; opacity: 1;"  transform=" translate(-9.33, -21.46)" d="M 9.373 22.7 a 0.8 0.8 0 0 1 -0.348 -0.1 l -0.084 -0.038 v -0.035 q 0.008 -0.471 0.013 -0.944 t 0.013 -0.945 l 0 -0.017 c 0.1 -0.287 0.206 -0.416 0.326 -0.408 s 0.259 0.121 0.424 0.926 v 0.014 c -0.015 0.247 -0.049 0.5 -0.082 0.741 s -0.066 0.49 -0.081 0.732 v 0.046 l -0.042 0.009 A 0.679 0.679 0 0 1 9.373 22.7 Z m -0.324 -0.2 l 0.02 0.009 a 0.61 0.61 0 0 0 0.385 0.082 c 0.016 -0.235 0.048 -0.474 0.08 -0.705 s 0.065 -0.486 0.081 -0.727 c -0.157 -0.763 -0.289 -0.831 -0.326 -0.834 c -0.02 0 -0.1 0.017 -0.215 0.33 q -0.008 0.466 -0.013 0.935 T 9.049 22.492 Z" stroke-linecap="round" />
</g>
<g transform="matrix(25 0 0 25 84.86 139.8)" >
<path style="stroke: none; stroke-width: 1; stroke-dasharray: none; stroke-linecap: butt; stroke-dashoffset: 0; stroke-linejoin: miter; stroke-miterlimit: 4; fill: rgb(128,147,208); fill-rule: nonzero; opacity: 1;"  transform=" translate(-19.39, -21.59)" d="M 19.021 22.468 c 0.041 -0.521 -0.015 -0.955 0 -1.465 c 0.015 -0.618 0.626 -0.439 0.652 0.128 s 0.056 0.858 0.087 1.424 a 1.309 1.309 0 0 1 -0.733 -0.087 Z" stroke-linecap="round" />
</g>
<g transform="matrix(25 0 0 25 84.82 139.67)" >
<path style="stroke: none; stroke-width: 1; stroke-dasharray: none; stroke-linecap: butt; stroke-dashoffset: 0; stroke-linejoin: miter; stroke-miterlimit: 4; fill: rgb(55,52,53); fill-rule: nonzero; opacity: 1;"  transform=" translate(-19.39, -21.59)" d="M 19.463 22.618 a 0.922 0.922 0 0 1 -0.451 -0.1 h -0.044 v -0.057 a 7.342 7.342 0 0 0 0.006 -0.836 c -0.006 -0.2 -0.013 -0.407 -0.006 -0.626 c 0.008 -0.322 0.167 -0.438 0.313 -0.439 h 0 c 0.2 0 0.427 0.215 0.442 0.566 c 0.015 0.289 0.03 0.5 0.044 0.721 s 0.028 0.423 0.043 0.7 l 0 0.054 l -0.155 0.006 C 19.592 22.615 19.527 22.618 19.463 22.618 Z m -0.387 -0.184 a 1.1 1.1 0 0 0 0.579 0.072 l 0.048 0 c -0.014 -0.253 -0.027 -0.451 -0.04 -0.648 c -0.014 -0.217 -0.028 -0.433 -0.044 -0.723 s -0.183 -0.465 -0.336 -0.465 h 0 c -0.125 0 -0.2 0.127 -0.208 0.336 s 0 0.421 0.006 0.62 A 7.778 7.778 0 0 1 19.076 22.434 Z" stroke-linecap="round" />
</g>
<g transform="matrix(25 0 0 25 67.68 136.52)" >
<path style="stroke: none; stroke-width: 1; stroke-dasharray: none; stroke-linecap: butt; stroke-dashoffset: 0; stroke-linejoin: miter; stroke-miterlimit: 4; fill: rgb(185,197,234); fill-rule: nonzero; opacity: 1;"  transform=" translate(-18.7, -21.46)" d="M 18.989 22.487 c -0.015 -0.382 -0.01 -0.841 -0.025 -1.223 c 0.036 -0.525 -0.326 -1.3 -0.468 -0.438 a 8.571 8.571 0 0 0 -0.081 0.963 A 4.066 4.066 0 0 0 18.989 22.487 Z" stroke-linecap="round" />
</g>
<g transform="matrix(25 0 0 25 67.7 137.26)" >
<path style="stroke: none; stroke-width: 1; stroke-dasharray: none; stroke-linecap: butt; stroke-dashoffset: 0; stroke-linejoin: miter; stroke-miterlimit: 4; fill: rgb(55,52,53); fill-rule: nonzero; opacity: 1;"  transform=" translate(-18.7, -21.49)" d="M 19.046 22.595 l -0.089 -0.064 A 2.556 2.556 0 0 1 18.5 22 c -0.048 -0.067 -0.092 -0.128 -0.128 -0.174 l -0.013 -0.016 v -0.02 c 0.007 -0.1 0.012 -0.2 0.016 -0.28 a 5.486 5.486 0 0 1 0.066 -0.688 c 0.018 -0.112 0.074 -0.452 0.253 -0.43 c 0.2 0.024 0.343 0.558 0.321 0.88 c 0.008 0.186 0.01 0.4 0.013 0.607 s 0.005 0.42 0.013 0.61 Z m -0.578 -0.822 c 0.035 0.045 0.075 0.1 0.119 0.162 a 3.567 3.567 0 0 0 0.345 0.433 c 0 -0.158 -0.007 -0.327 -0.009 -0.491 c 0 -0.206 -0.005 -0.42 -0.013 -0.61 c 0.025 -0.372 -0.14 -0.763 -0.227 -0.773 c -0.019 -0.006 -0.088 0.054 -0.136 0.341 a 5.4 5.4 0 0 0 -0.065 0.676 C 18.478 21.591 18.474 21.676 18.468 21.772 Z" stroke-linecap="round" />
</g>
<g transform="matrix(25 0 0 25 13.8 -60.54)" >
<path style="stroke: none; stroke-width: 1; stroke-dasharray: none; stroke-linecap: butt; stroke-dashoffset: 0; stroke-linejoin: miter; stroke-miterlimit: 4; fill: rgb(55,52,53); fill-rule: nonzero; opacity: 1;"  transform=" translate(-16.55, -13.58)" d="M 14.443 15.459 c 0.26 -1.24 0.515 -2.48 0.775 -3.725 c 0.041 -0.291 0.117 -0.551 0.423 -0.577 h 0.372 c 0.224 0 0.352 0.133 0.372 0.4 l -0.076 0.551 c 0.01 0.225 0.148 0.352 0.423 0.373 c 0.372 0.015 0.75 0.036 1.122 0.051 c 0.561 0.036 0.938 0.276 0.9 0.975 c -0.117 0.617 -0.235 1.235 -0.352 1.847 a 0.725 0.725 0 0 1 -0.474 0.648 c -0.168 -0.01 -0.357 0.01 -0.525 0 c -0.291 0.015 -0.459 -0.092 -0.352 -0.475 c 0.107 -0.485 0.24 -1.092 0.352 -1.577 c 0.041 -0.577 -0.173 -0.607 -0.4 -0.648 c -0.194 -0.026 -0.382 0 -0.576 -0.026 c -0.286 0.041 -0.393 0.316 -0.474 0.623 c -0.122 0.515 -0.25 1.031 -0.372 1.551 c -0.056 0.281 -0.117 0.464 -0.326 0.551 h -0.622 q -0.352 -0.077 -0.2 -0.551 Z" stroke-linecap="round" />
</g>
<g transform="matrix(25 0 0 25 14.52 -60.22)" >
<path style="stroke: none; stroke-width: 1; stroke-dasharray: none; stroke-linecap: butt; stroke-dashoffset: 0; stroke-linejoin: miter; stroke-miterlimit: 4; fill: rgb(254,254,254); fill-rule: nonzero; opacity: 1;"  transform=" translate(-16.58, -13.59)" d="M 17.509 16.11 c -0.037 0 -0.073 0 -0.109 0 a 0.468 0.468 0 0 1 -0.415 -0.137 a 0.511 0.511 0 0 1 -0.039 -0.473 l 0.061 -0.278 c 0.093 -0.422 0.2 -0.893 0.288 -1.286 c 0.031 -0.465 -0.094 -0.488 -0.3 -0.526 c -0.186 -0.025 -0.365 0 -0.565 -0.024 c -0.2 0.036 -0.291 0.235 -0.373 0.542 c -0.054 0.227 -0.11 0.458 -0.166 0.689 c -0.069 0.286 -0.138 0.572 -0.206 0.86 s -0.123 0.514 -0.389 0.625 l -0.02 0.008 l -0.666 0 a 0.4 0.4 0 0 1 -0.276 -0.185 a 0.616 0.616 0 0 1 0 -0.5 l 0.033 -0.1 q 0.2 -0.969 0.4 -1.939 q 0.172 -0.83 0.345 -1.661 c 0.028 -0.2 0.087 -0.625 0.519 -0.661 h 0.381 c 0.164 0 0.445 0.064 0.478 0.5 v 0.011 l -0.077 0.552 c 0.007 0.113 0.054 0.242 0.324 0.262 l 0.561 0.025 l 0.557 0.025 a 0.928 0.928 0 0 1 1 1.087 l 0 0.014 c -0.117 0.618 -0.235 1.235 -0.352 1.848 a 0.829 0.829 0 0 1 -0.543 0.728 l -0.02 0.007 h -0.022 c -0.079 0 -0.164 0 -0.253 0 C 17.614 16.108 17.561 16.11 17.509 16.11 Z m -0.108 -0.216 h 0.006 c 0.079 0 0.164 0 0.253 0 s 0.168 0 0.25 0 a 0.625 0.625 0 0 0 0.385 -0.557 q 0.176 -0.92 0.351 -1.844 c 0.031 -0.562 -0.208 -0.818 -0.8 -0.855 l -0.556 -0.025 l -0.563 -0.026 c -0.44 -0.033 -0.518 -0.311 -0.525 -0.474 V 12.1 l 0.076 -0.549 c -0.023 -0.256 -0.154 -0.289 -0.265 -0.289 h -0.372 c -0.184 0.016 -0.27 0.143 -0.318 0.485 c -0.117 0.562 -0.232 1.115 -0.347 1.668 q -0.214 1.033 -0.43 2.064 l -0.04 0.193 l -0.012 -0.012 a 0.261 0.261 0 0 0 0.023 0.151 a 0.187 0.187 0 0 0 0.126 0.081 h 0.587 c 0.143 -0.068 0.192 -0.2 0.244 -0.466 c 0.069 -0.292 0.138 -0.579 0.207 -0.865 q 0.084 -0.346 0.166 -0.691 c 0.061 -0.228 0.172 -0.648 0.563 -0.7 l 0.014 0 l 0.015 0 c 0.182 0.024 0.372 0 0.576 0.026 l 0.014 0 c 0.286 0.052 0.519 0.145 0.476 0.759 l 0 0.017 c -0.091 0.394 -0.2 0.868 -0.289 1.292 l -0.063 0.284 c -0.04 0.143 -0.04 0.241 0 0.289 s 0.157 0.061 0.243 0.057 Z" stroke-linecap="round" />
</g>
<g transform="matrix(25 0 0 25 -98.78 -28.49)" >
<path style="stroke: none; stroke-width: 1; stroke-dasharray: none; stroke-linecap: butt; stroke-dashoffset: 0; stroke-linejoin: miter; stroke-miterlimit: 4; fill: rgb(55,52,53); fill-rule: nonzero; opacity: 1;"  transform=" translate(-12.04, -14.86)" d="M 9.624 16.894 c 0.255 -1.322 0.515 -2.644 0.771 -3.961 a 0.426 0.426 0 0 1 0.449 -0.449 h 2.348 a 1.231 1.231 0 0 1 1.107 0.623 a 1.587 1.587 0 0 1 0.189 0.934 a 2.35 2.35 0 0 1 -0.694 1.465 a 2.186 2.186 0 0 1 -1.148 0.5 c -0.4 0.01 -0.8 0.015 -1.2 0.026 c -0.23 -0.02 -0.459 0.041 -0.515 0.225 c -0.071 0.25 -0.122 0.5 -0.194 0.745 a 0.42 0.42 0 0 1 -0.265 0.23 c -0.23 0.005 -0.464 0.005 -0.694 0.01 C 9.532 17.246 9.583 17.1 9.624 16.894 Z m 1.638 -2.266 c 0.066 -0.347 0.148 -0.74 0.209 -1.046 a 0.452 0.452 0 0 1 0.449 -0.3 a 1.825 1.825 0 0 1 0.715 0.092 a 0.766 0.766 0 0 1 0.383 1.082 a 1.437 1.437 0 0 1 -0.852 0.7 a 1.651 1.651 0 0 1 -0.51 0.051 c -0.439 -0.046 -0.475 -0.163 -0.4 -0.582 Z" stroke-linecap="round" />
</g>
<g transform="matrix(25 0 0 25 -98.8 -28.46)" >
<path style="stroke: none; stroke-width: 1; stroke-dasharray: none; stroke-linecap: butt; stroke-dashoffset: 0; stroke-linejoin: miter; stroke-miterlimit: 4; fill: rgb(254,254,254); fill-rule: nonzero; opacity: 1;"  transform=" translate(-12.04, -14.86)" d="M 9.766 17.348 a 0.283 0.283 0 0 1 -0.232 -0.085 c -0.076 -0.091 -0.05 -0.214 -0.023 -0.344 l 0.009 -0.045 q 0.211 -1.092 0.425 -2.184 q 0.172 -0.882 0.343 -1.762 a 0.5 0.5 0 0 1 0.138 -0.377 a 0.559 0.559 0 0 1 0.423 -0.173 h 2.343 a 1.327 1.327 0 0 1 1.2 0.681 a 1.693 1.693 0 0 1 0.2 0.99 a 2.458 2.458 0 0 1 -0.724 1.532 l -0.012 0.011 a 2.288 2.288 0 0 1 -1.2 0.521 c -0.206 0.006 -0.407 0.009 -0.607 0.013 l -0.6 0.013 h -0.012 c -0.161 -0.014 -0.364 0.016 -0.4 0.15 s -0.065 0.244 -0.1 0.367 s -0.062 0.25 -0.1 0.377 a 0.509 0.509 0 0 1 -0.326 0.3 l -0.019 0.008 h -0.02 l -0.345 0.005 l -0.349 0.005 Z m -0.067 -0.22 a 0.226 0.226 0 0 0 0.076 0.007 l 0.352 -0.005 l 0.322 0 c 0.108 -0.048 0.17 -0.1 0.187 -0.154 c 0.035 -0.123 0.065 -0.245 0.1 -0.368 s 0.062 -0.25 0.1 -0.376 c 0.065 -0.214 0.3 -0.329 0.621 -0.3 l 0.594 -0.013 l 0.6 -0.013 a 2.083 2.083 0 0 0 1.08 -0.474 a 2.246 2.246 0 0 0 0.659 -1.392 a 1.487 1.487 0 0 0 -0.178 -0.879 a 1.144 1.144 0 0 0 -1.018 -0.564 H 10.844 a 0.343 0.343 0 0 0 -0.263 0.107 a 0.285 0.285 0 0 0 -0.08 0.226 l 0 0.015 l 0 0.015 q -0.172 0.887 -0.346 1.777 q -0.213 1.091 -0.425 2.184 l -0.01 0.047 a 0.541 0.541 0 0 0 -0.02 0.166 Z m 2.052 -1.812 c -0.035 0 -0.07 0 -0.106 0 a 0.636 0.636 0 0 1 -0.458 -0.179 c -0.089 -0.119 -0.081 -0.277 -0.035 -0.528 l 0.036 -0.2 l 0.007 0.007 c 0.035 -0.179 0.073 -0.363 0.108 -0.536 l 0.073 -0.343 a 0.555 0.555 0 0 1 0.552 -0.36 a 1.889 1.889 0 0 1 0.745 0.1 a 0.806 0.806 0 0 1 0.472 0.449 a 0.99 0.99 0 0 1 -0.03 0.776 l -0.007 0.013 a 1.536 1.536 0 0 1 -0.911 0.745 A 2.067 2.067 0 0 1 11.75 15.316 Z m -0.413 -0.512 a 0.307 0.307 0 0 0 0.021 0.2 c 0.035 0.046 0.133 0.076 0.308 0.095 a 1.579 1.579 0 0 0 0.476 -0.049 a 1.322 1.322 0 0 0 0.781 -0.645 a 0.775 0.775 0 0 0 0.025 -0.6 a 0.6 0.6 0 0 0 -0.351 -0.331 a 1.712 1.712 0 0 0 -0.674 -0.085 a 0.34 0.34 0 0 0 -0.35 0.23 l -0.061 0.3 c -0.048 0.236 -0.1 0.493 -0.145 0.729 Z" stroke-linecap="round" />
</g>
<g transform="matrix(25 0 0 25 124.22 -28.49)" >
<path style="stroke: none; stroke-width: 1; stroke-dasharray: none; stroke-linecap: butt; stroke-dashoffset: 0; stroke-linejoin: miter; stroke-miterlimit: 4; fill: rgb(55,52,53); fill-rule: nonzero; opacity: 1;"  transform=" translate(-20.96, -14.86)" d="M 18.545 16.894 c 0.255 -1.322 0.515 -2.644 0.771 -3.961 a 0.426 0.426 0 0 1 0.449 -0.449 h 2.348 a 1.231 1.231 0 0 1 1.107 0.623 a 1.587 1.587 0 0 1 0.189 0.934 a 2.35 2.35 0 0 1 -0.694 1.465 a 2.186 2.186 0 0 1 -1.148 0.5 c -0.4 0.01 -0.8 0.015 -1.2 0.026 c -0.23 -0.02 -0.459 0.041 -0.515 0.225 c -0.071 0.25 -0.122 0.5 -0.194 0.745 a 0.42 0.42 0 0 1 -0.265 0.23 c -0.23 0.005 -0.464 0.005 -0.694 0.01 C 18.453 17.246 18.5 17.1 18.545 16.894 Z m 1.638 -2.266 c 0.066 -0.347 0.148 -0.74 0.209 -1.046 a 0.452 0.452 0 0 1 0.449 -0.3 a 1.825 1.825 0 0 1 0.715 0.092 a 0.766 0.766 0 0 1 0.383 1.082 a 1.437 1.437 0 0 1 -0.852 0.7 a 1.651 1.651 0 0 1 -0.51 0.051 c -0.439 -0.046 -0.475 -0.163 -0.4 -0.582 Z" stroke-linecap="round" />
</g>
<g transform="matrix(25 0 0 25 124.22 -28.47)" >
<path style="stroke: none; stroke-width: 1; stroke-dasharray: none; stroke-linecap: butt; stroke-dashoffset: 0; stroke-linejoin: miter; stroke-miterlimit: 4; fill: rgb(254,254,254); fill-rule: nonzero; opacity: 1;"  transform=" translate(-20.96, -14.86)" d="M 18.687 17.348 a 0.284 0.284 0 0 1 -0.232 -0.085 c -0.076 -0.091 -0.05 -0.214 -0.023 -0.344 l 0.009 -0.045 q 0.21 -1.089 0.423 -2.176 q 0.173 -0.886 0.345 -1.77 a 0.5 0.5 0 0 1 0.138 -0.377 a 0.559 0.559 0 0 1 0.423 -0.173 h 2.343 a 1.327 1.327 0 0 1 1.2 0.681 a 1.694 1.694 0 0 1 0.2 0.99 a 2.459 2.459 0 0 1 -0.724 1.532 l -0.012 0.011 a 2.288 2.288 0 0 1 -1.2 0.521 c -0.206 0.006 -0.407 0.009 -0.607 0.013 l -0.6 0.013 h -0.012 c -0.162 -0.014 -0.364 0.016 -0.4 0.15 s -0.065 0.244 -0.1 0.366 s -0.062 0.251 -0.1 0.377 a 0.509 0.509 0 0 1 -0.326 0.3 l -0.019 0.008 h -0.02 l -0.345 0.005 l -0.349 0.005 Z m -0.067 -0.22 a 0.238 0.238 0 0 0 0.076 0.007 l 0.352 -0.005 l 0.322 0 c 0.108 -0.048 0.17 -0.1 0.187 -0.154 c 0.035 -0.123 0.066 -0.246 0.1 -0.368 s 0.062 -0.249 0.1 -0.375 c 0.065 -0.214 0.3 -0.329 0.621 -0.3 l 0.594 -0.013 l 0.6 -0.013 a 2.083 2.083 0 0 0 1.08 -0.474 a 2.246 2.246 0 0 0 0.659 -1.392 a 1.486 1.486 0 0 0 -0.178 -0.879 a 1.144 1.144 0 0 0 -1.018 -0.564 H 19.765 a 0.341 0.341 0 0 0 -0.263 0.107 a 0.285 0.285 0 0 0 -0.08 0.226 l 0 0.015 l 0 0.015 q -0.173 0.891 -0.347 1.785 q -0.212 1.087 -0.423 2.176 h 0 l -0.01 0.047 a 0.541 0.541 0 0 0 -0.02 0.166 Z m 2.052 -1.812 c -0.035 0 -0.07 0 -0.106 0 a 0.636 0.636 0 0 1 -0.458 -0.179 c -0.089 -0.119 -0.081 -0.277 -0.035 -0.528 l 0.036 -0.2 l 0.007 0.007 c 0.035 -0.18 0.073 -0.365 0.108 -0.539 l 0.073 -0.341 a 0.552 0.552 0 0 1 0.552 -0.36 a 1.9 1.9 0 0 1 0.745 0.1 a 0.806 0.806 0 0 1 0.472 0.449 a 0.99 0.99 0 0 1 -0.03 0.776 l -0.007 0.013 a 1.536 1.536 0 0 1 -0.911 0.745 A 2.067 2.067 0 0 1 20.672 15.316 Z m -0.414 -0.511 a 0.307 0.307 0 0 0 0.021 0.2 c 0.035 0.046 0.133 0.076 0.308 0.095 a 1.58 1.58 0 0 0 0.476 -0.049 a 1.322 1.322 0 0 0 0.781 -0.645 a 0.775 0.775 0 0 0 0.025 -0.6 a 0.6 0.6 0 0 0 -0.351 -0.331 a 1.709 1.709 0 0 0 -0.674 -0.085 a 0.341 0.341 0 0 0 -0.35 0.23 l -0.061 0.3 c -0.048 0.237 -0.1 0.495 -0.145 0.731 Z" stroke-linecap="round" />
</g>
<g transform="matrix(25 0 0 25 -263.44 -2.68)" >
<path style="stroke: none; stroke-width: 1; stroke-dasharray: none; stroke-linecap: butt; stroke-dashoffset: 0; stroke-linejoin: miter; stroke-miterlimit: 4; fill: rgb(235,239,255); fill-rule: nonzero; opacity: 1;"  transform=" translate(-5.46, -15.9)" d="M 3.425 22.906 a 1.615 1.615 0 0 1 -0.3 -0.393 a 1.41 1.41 0 0 1 -0.173 -0.735 c -0.26 -4.433 -0.031 -8.31 1.382 -11.478 c 0.173 -0.388 0.2 -0.505 0.561 -0.684 a 7.429 7.429 0 0 1 3.452 -0.4 c 0.036 -0.1 0.107 -0.2 0.076 -0.3 a 9.955 9.955 0 0 0 -3.146 0.25 c -0.7 0.112 -1.382 0.235 -1.55 1.347 c -1.412 3.739 -1.31 7.28 -1.163 10.759 a 2.433 2.433 0 0 0 0.112 0.74 c 0.275 0.877 0.541 0.847 0.75 0.893 Z" stroke-linecap="round" />
</g>
<g transform="matrix(25 0 0 25 -192.63 91.93)" >
<path style="stroke: none; stroke-width: 1; stroke-dasharray: none; stroke-linecap: butt; stroke-dashoffset: 0; stroke-linejoin: miter; stroke-miterlimit: 4; fill: rgb(235,239,255); fill-rule: nonzero; opacity: 1;"  transform=" translate(-8.29, -19.68)" d="M 8.848 22.351 c 0 -0.923 -0.076 -1.846 -0.076 -2.773 a 5.413 5.413 0 0 0 -0.341 -1.545 a 7.481 7.481 0 0 0 -0.7 -1.025 a 7.387 7.387 0 0 1 0.7 4.92 C 8.573 22.07 8.7 22.213 8.848 22.351 Z" stroke-linecap="round" />
</g>
<g transform="matrix(25 0 0 25 -186.53 130.48)" >
<path style="stroke: none; stroke-width: 1; stroke-dasharray: none; stroke-linecap: butt; stroke-dashoffset: 0; stroke-linejoin: miter; stroke-miterlimit: 4; fill: rgb(55,52,53); fill-rule: nonzero; opacity: 1;"  transform=" translate(-8.53, -21.22)" d="M 8.924 22.534 l -0.071 -0.027 a 1.536 1.536 0 0 1 -0.66 -0.542 l -0.069 -0.087 h 0.065 c 0.015 -0.331 0.009 -0.634 0 -0.928 c -0.006 -0.31 -0.013 -0.63 0.005 -0.982 l 0 -0.059 l 0.059 0.009 a 0.788 0.788 0 0 1 0.69 0.6 l 0 0.008 v 0.008 c -0.005 0.344 -0.009 0.65 -0.013 0.955 s -0.008 0.622 -0.013 0.97 Z m -0.631 -0.614 a 1.519 1.519 0 0 0 0.526 0.458 c 0 -0.316 0.008 -0.6 0.012 -0.891 c 0 -0.3 0.008 -0.607 0.013 -0.947 a 0.672 0.672 0 0 0 -0.544 -0.505 c -0.014 0.324 -0.008 0.623 0 0.913 C 8.3 21.255 8.31 21.572 8.293 21.92 Z" stroke-linecap="round" />
</g>
<g transform="matrix(25 0 0 25 -151.07 124.21)" >
<path style="stroke: none; stroke-width: 1; stroke-dasharray: none; stroke-linecap: butt; stroke-dashoffset: 0; stroke-linejoin: miter; stroke-miterlimit: 4; fill: rgb(235,239,255); fill-rule: nonzero; opacity: 1;"  transform=" translate(-9.95, -20.97)" d="M 10.252 23.657 a 1.022 1.022 0 0 1 -0.5 -0.423 c -0.036 -1.648 -0.067 -3.3 -0.1 -4.949 l 0.251 0.25 a 6.049 6.049 0 0 1 0.077 1.051 l 0.077 0.2 A 37.7 37.7 0 0 0 10.252 23.657 Z" stroke-linecap="round" />
</g>
<g transform="matrix(25 0 0 25 -150.74 165.9)" >
<path style="stroke: none; stroke-width: 1; stroke-dasharray: none; stroke-linecap: butt; stroke-dashoffset: 0; stroke-linejoin: miter; stroke-miterlimit: 4; fill: rgb(55,52,53); fill-rule: nonzero; opacity: 1;"  transform=" translate(-9.96, -22.64)" d="M 10.335 24.023 L 10.265 24 a 1.209 1.209 0 0 1 -0.673 -0.586 L 9.585 23.4 V 23.38 c 0 -0.549 0.01 -1.117 0.01 -1.673 v -0.014 l 0.007 -0.012 c 0.151 -0.275 0.281 -0.452 0.423 -0.424 c 0.111 0.022 0.236 0.151 0.32 0.935 c 0 0.583 -0.01 1.177 -0.01 1.758 Z m -0.643 -0.65 a 1.124 1.124 0 0 0 0.537 0.5 c 0 -0.557 0.005 -1.124 0.01 -1.674 c -0.078 -0.729 -0.19 -0.829 -0.234 -0.838 s -0.13 0.047 -0.3 0.359 C 9.7 22.27 9.7 22.831 9.692 23.374 Z m -0.044 0.009 h 0 Z" stroke-linecap="round" />
</g>
<g transform="matrix(25 0 0 25 -161.44 115.79)" >
<path style="stroke: none; stroke-width: 1; stroke-dasharray: none; stroke-linecap: butt; stroke-dashoffset: 0; stroke-linejoin: miter; stroke-miterlimit: 4; fill: rgb(55,52,53); fill-rule: nonzero; opacity: 1;"  transform=" translate(-9.54, -20.63)" d="M 8.5 18.057 a 0.708 0.708 0 0 0 -0.036 -0.25 c 0.041 0.01 0.082 0.015 0.122 0.026 l 0.647 0.526 a 0.377 0.377 0 0 0 0.2 -0.2 a 0.27 0.27 0 0 1 0.214 0.1 c 0.01 0.419 -0.02 0.832 -0.01 1.25 a 0.356 0.356 0 0 1 0.122 0.225 a 7.181 7.181 0 0 1 0.8 0.077 c 0.015 0.066 0.036 0.107 0.051 0.174 a 4.038 4.038 0 0 0 -0.9 0 v 0.189 a 2.838 2.838 0 0 1 0.7 0.051 c 0.01 0.056 0.015 0.082 0.025 0.138 a 2.831 2.831 0 0 0 -0.749 0.01 c 0.031 1.031 0.041 2.052 0 3.088 c -0.082 -0.194 -0.239 -0.383 -0.326 -0.577 a 19.57 19.57 0 0 0 0.061 -3.976 A 2.746 2.746 0 0 0 8.5 18.057 Z" stroke-linecap="round" />
</g>
<g transform="matrix(25 0 0 25 -161.38 113.94)" >
<path style="stroke: none; stroke-width: 1; stroke-dasharray: none; stroke-linecap: butt; stroke-dashoffset: 0; stroke-linejoin: miter; stroke-miterlimit: 4; fill: rgb(55,52,53); fill-rule: nonzero; opacity: 1;"  transform=" translate(-9.54, -20.56)" d="M 9.544 23.524 a 1.979 1.979 0 0 0 -0.155 -0.274 a 2.414 2.414 0 0 1 -0.17 -0.3 L 9.2 22.909 l 0.006 -0.045 a 19.407 19.407 0 0 0 0.062 -3.9 a 2.7 2.7 0 0 0 -0.852 -0.767 l -0.09 -0.058 l 0.02 -0.106 a 0.343 0.343 0 0 0 -0.018 -0.113 c -0.007 -0.027 -0.013 -0.053 -0.018 -0.079 l -0.046 -0.245 l 0.242 0.06 l 0.052 0.011 c 0.023 0 0.047 0.009 0.07 0.015 l 0.034 0.009 l 0.584 0.474 a 0.156 0.156 0 0 0 0.039 -0.057 l 0.039 -0.1 h 0.111 a 0.427 0.427 0 0 1 0.345 0.171 l 0.027 0.039 v 0.048 c 0.005 0.213 0 0.427 -0.005 0.633 c 0 0.183 -0.009 0.372 -0.006 0.558 a 0.572 0.572 0 0 1 0.086 0.131 c 0.166 0.007 0.33 0.029 0.49 0.049 l 0.206 0.025 l 0.112 0.013 l 0.025 0.11 a 0.73 0.73 0 0 0 0.021 0.072 c 0.01 0.031 0.021 0.063 0.03 0.1 l 0.049 0.212 l -0.217 -0.017 l -0.039 0 l 0.073 0.4 l -0.211 -0.022 a 2.894 2.894 0 0 0 -0.569 -0.009 c 0.032 1.14 0.03 2.082 0 2.954 Z M 9.53 22.86 l 0.019 0.036 q 0 -0.108 0 -0.219 Q 9.542 22.769 9.53 22.86 Z M 9.315 18.5 a 1.989 1.989 0 0 1 0.175 0.215 c 0 -0.115 0 -0.231 0 -0.346 A 0.62 0.62 0 0 1 9.315 18.5 Z" stroke-linecap="round" />
</g>
<g transform="matrix(25 0 0 25 -123.09 -192.94)" >
<path style="stroke: none; stroke-width: 1; stroke-dasharray: none; stroke-linecap: butt; stroke-dashoffset: 0; stroke-linejoin: miter; stroke-miterlimit: 4; fill: rgb(235,239,255); fill-rule: nonzero; opacity: 1;"  transform=" translate(-11.07, -8.28)" d="M 9.121 8.964 a 3.473 3.473 0 0 0 1.307 -0.449 a 5.948 5.948 0 0 1 2.593 -0.75 a 1.8 1.8 0 0 0 -1.2 -0.1 A 7.176 7.176 0 0 0 9.121 8.964 Z" stroke-linecap="round" />
</g>
<g transform="matrix(25 0 0 25 36.11 -192.63)" >
<path style="stroke: none; stroke-width: 1; stroke-dasharray: none; stroke-linecap: butt; stroke-dashoffset: 0; stroke-linejoin: miter; stroke-miterlimit: 4; fill: rgb(235,239,255); fill-rule: nonzero; opacity: 1;"  transform=" translate(-17.44, -8.3)" d="M 14.114 8.41 a 10.412 10.412 0 0 1 6.65 0.3 a 9.77 9.77 0 0 0 -6.624 -0.447 C 14.139 8.365 14.114 8.314 14.114 8.41 Z" stroke-linecap="round" />
</g>
</g>
</g>
</svg>