<?xml version="1.0" encoding="UTF-8" standalone="no" ?>
<!DOCTYPE svg PUBLIC "-//W3C//DTD SVG 1.1//EN" "http://www.w3.org/Graphics/SVG/1.1/DTD/svg11.dtd">
<svg xmlns="http://www.w3.org/2000/svg" xmlns:xlink="http://www.w3.org/1999/xlink" version="1.1" width="1080" height="1080" viewBox="0 0 1080 1080" xml:space="preserve">
<g transform="matrix(30.82 0 0 30.82 540.39 540.11)">
<g><g transform="matrix(0.1 0 0 0.1 0 -0.02)">
<path style="stroke: none; stroke-width: 1; stroke-dasharray: none; stroke-linecap: butt; stroke-dashoffset: 0; stroke-linejoin: miter; stroke-miterlimit: 4; fill: rgb(255,62,0); fill-rule: nonzero; opacity: 1;"  transform=" translate(-128, -153.83)" d="M 239.682 40.707 C 211.113 -0.182 154.69 -12.301 113.895 13.69 L 42.247 59.356 a 82.198 82.198 0 0 0 -37.135 55.056 a 86.566 86.566 0 0 0 8.536 55.576 a 82.425 82.425 0 0 0 -12.296 30.719 a 87.596 87.596 0 0 0 14.964 66.244 c 28.574 40.893 84.997 53.007 125.787 27.016 l 71.648 -45.664 a 82.182 82.182 0 0 0 37.135 -55.057 a 86.601 86.601 0 0 0 -8.53 -55.577 a 82.409 82.409 0 0 0 12.29 -30.718 a 87.573 87.573 0 0 0 -14.963 -66.244" stroke-linecap="round" />
</g><g transform="matrix(0.1 0 0 0.1 0 -0.02)">
<path style="stroke: none; stroke-width: 1; stroke-dasharray: none; stroke-linecap: butt; stroke-dashoffset: 0; stroke-linejoin: miter; stroke-miterlimit: 4; fill: rgb(255,255,255); fill-rule: nonzero; opacity: 1;"  transform=" translate(-128, -153.84)" d="M 106.889 270.841 c -23.102 6.007 -47.497 -3.036 -61.103 -22.648 a 52.685 52.685 0 0 1 -9.003 -39.85 a 49.978 49.978 0 0 1 1.713 -6.693 l 1.35 -4.115 l 3.671 2.697 a 92.447 92.447 0 0 0 28.036 14.007 l 2.663 0.808 l -0.245 2.659 a 16.067 16.067 0 0 0 2.89 10.656 a 17.143 17.143 0 0 0 18.397 6.828 a 15.786 15.786 0 0 0 4.403 -1.935 l 71.67 -45.672 a 14.922 14.922 0 0 0 6.734 -9.977 a 15.923 15.923 0 0 0 -2.713 -12.011 a 17.156 17.156 0 0 0 -18.404 -6.832 a 15.78 15.78 0 0 0 -4.396 1.933 l -27.35 17.434 a 52.298 52.298 0 0 1 -14.553 6.391 c -23.101 6.007 -47.497 -3.036 -61.101 -22.649 a 52.681 52.681 0 0 1 -9.004 -39.849 a 49.428 49.428 0 0 1 22.34 -33.114 l 71.664 -45.677 a 52.218 52.218 0 0 1 14.563 -6.398 c 23.101 -6.007 47.497 3.036 61.101 22.648 a 52.685 52.685 0 0 1 9.004 39.85 a 50.559 50.559 0 0 1 -1.713 6.692 l -1.35 4.116 l -3.67 -2.693 a 92.373 92.373 0 0 0 -28.037 -14.013 l -2.664 -0.809 l 0.246 -2.658 a 16.099 16.099 0 0 0 -2.89 -10.656 a 17.143 17.143 0 0 0 -18.398 -6.828 a 15.786 15.786 0 0 0 -4.402 1.935 l -71.67 45.674 a 14.898 14.898 0 0 0 -6.73 9.975 a 15.9 15.9 0 0 0 2.709 12.012 a 17.156 17.156 0 0 0 18.404 6.832 a 15.841 15.841 0 0 0 4.402 -1.935 l 27.345 -17.427 a 52.147 52.147 0 0 1 14.552 -6.397 c 23.101 -6.006 47.497 3.037 61.102 22.65 a 52.681 52.681 0 0 1 9.003 39.848 a 49.453 49.453 0 0 1 -22.34 33.12 l -71.664 45.673 a 52.218 52.218 0 0 1 -14.563 6.398" stroke-linecap="round" />
</g></g></g></svg>