<?xml version="1.0" encoding="UTF-8" standalone="no" ?>
<!DOCTYPE svg PUBLIC "-//W3C//DTD SVG 1.1//EN" "http://www.w3.org/Graphics/SVG/1.1/DTD/svg11.dtd">
<svg xmlns="http://www.w3.org/2000/svg" xmlns:xlink="http://www.w3.org/1999/xlink" version="1.1" width="1080" height="1080" viewBox="0 0 1080 1080" xml:space="preserve">
<desc>Created with Fabric.js 3.6.6</desc>
<defs>
</defs>
<g transform="matrix(1 0 0 1 540 540)"  >
<rect style="stroke: none; stroke-width: 1; stroke-dasharray: none; stroke-linecap: butt; stroke-dashoffset: 0; stroke-linejoin: miter; stroke-miterlimit: 4; fill: rgb(255,255,255); fill-rule: nonzero; opacity: 1; visibility: hidden;"  x="-540" y="-540" rx="0" ry="0" width="1080" height="1080" />
</g>
<g transform="matrix(1.5 0 0 1.5 540.1 535.12)"  >
<g style=""   >
		<g transform="matrix(25 0 0 25 0 0)"  >
<path style="stroke: none; stroke-width: 1; stroke-dasharray: none; stroke-linecap: butt; stroke-dashoffset: 0; stroke-linejoin: miter; stroke-miterlimit: 4; fill: rgb(65,184,131); fill-rule: nonzero; opacity: 1;"  transform=" translate(-16, -16)" d="M 2 4 L 16 28 L 30 4 L 24.5 4 L 16 18.5 L 7.5 4 L 2 4 Z" stroke-linecap="round" />
</g>
		<g transform="matrix(25 0 0 25 0 -118.75)"  >
<path style="stroke: none; stroke-width: 1; stroke-dasharray: none; stroke-linecap: butt; stroke-dashoffset: 0; stroke-linejoin: miter; stroke-miterlimit: 4; fill: rgb(53,73,94); fill-rule: nonzero; opacity: 1;"  transform=" translate(-16, -11.25)" d="M 7.5 4 L 16 18.5 L 24.5 4 L 19.5 4 L 16.0653 10.0126 L 12.5 4 L 7.5 4 Z" stroke-linecap="round" />
</g>
</g>
</g>
</svg>