<?xml version="1.0" encoding="UTF-8" standalone="no" ?>
<!DOCTYPE svg PUBLIC "-//W3C//DTD SVG 1.1//EN" "http://www.w3.org/Graphics/SVG/1.1/DTD/svg11.dtd">
<svg xmlns="http://www.w3.org/2000/svg" xmlns:xlink="http://www.w3.org/1999/xlink" version="1.1" width="1080" height="1080" viewBox="0 0 1080 1080" xml:space="preserve">
<desc>Created with Fabric.js 3.6.6</desc>
<g transform="matrix(1.5 0 0 1.5 540.02 540.37)">
<g><g transform="matrix(25 0 0 25 -3.16 0.03)">
<path style="stroke: none; stroke-width: 1; stroke-dasharray: none; stroke-linecap: butt; stroke-dashoffset: 0; stroke-linejoin: miter; stroke-miterlimit: 4; fill: rgb(198,61,20); fill-rule: nonzero; opacity: 1;"  transform=" translate(-15.88, -16)" d="M 27.089 15.786 a 2.606 2.606 0 0 0 -2.606 -2.606 a 2.633 2.633 0 0 0 -0.274 0.014 l 3.58 -10.558 H 12.576 l 3.575 10.549 c -0.052 0 -0.105 -0.005 -0.158 -0.005 a 2.606 2.606 0 0 0 -0.791 5.09 a 11.383 11.383 0 0 1 -2.049 2.579 A 10.436 10.436 0 0 1 9.5 23.116 a 3.323 3.323 0 0 1 -1.665 -4.23 c 0.077 -0.18 0.155 -0.362 0.229 -0.544 a 2.607 2.607 0 1 0 -2.09 -0.4 a 20.134 20.134 0 0 0 -1.889 4.787 c -0.354 2.135 0 4.4 1.845 5.681 c 4.3 2.981 8.969 -1.848 13.891 -3.061 c 1.784 -0.44 3.742 -0.369 5.313 -1.279 a 4.45 4.45 0 0 0 2.179 -3.088 a 4.639 4.639 0 0 0 -0.831 -3.522 a 2.6 2.6 0 0 0 0.606 -1.671 Z M 18.6 15.8 v -0.009 a 2.6 2.6 0 0 0 -1.256 -2.23 L 20.188 7.8 l 2.85 5.814 a 2.6 2.6 0 0 0 -1.161 2.169 c 0 0.019 0 0.038 0 0.057 L 18.6 15.8 Z" stroke-linecap="round" />
</g><g transform="matrix(25 0 0 25 0 0)">
<path style="stroke: none; stroke-width: 1; stroke-dasharray: none; stroke-linecap: butt; stroke-dashoffset: 0; stroke-linejoin: miter; stroke-miterlimit: 4; fill: rgb(255,255,255); fill-rule: nonzero; opacity: 1;"  transform=" translate(-16, -16)" d="M 27.726 15.786 A 3.247 3.247 0 0 0 25.083 12.6 L 28.677 2 H 11.689 l 3.6 10.621 a 3.241 3.241 0 0 0 -1 5.918 a 10.865 10.865 0 0 1 -1.568 1.846 a 9.827 9.827 0 0 1 -3.16 2.03 a 2.656 2.656 0 0 1 -1.134 -3.28 l 0.04 -0.093 l 0.074 -0.175 a 3.245 3.245 0 1 0 -3.34 -0.754 c -0.108 0.231 -0.222 0.465 -0.339 0.706 a 14 14 0 0 0 -1.4 3.8 c -0.465 2.8 0.285 5.043 2.111 6.308 A 5.751 5.751 0 0 0 8.934 30 c 2.132 0 4.289 -1.071 6.4 -2.119 a 23.672 23.672 0 0 1 4.642 -1.918 c 0.577 -0.142 1.171 -0.228 1.8 -0.319 a 9.977 9.977 0 0 0 3.68 -1.028 a 5.09 5.09 0 0 0 2.487 -3.53 a 5.255 5.255 0 0 0 -0.691 -3.613 a 3.223 3.223 0 0 0 0.475 -1.688 Z m -1.273 0 a 1.97 1.97 0 1 1 -1.97 -1.97 a 1.972 1.972 0 0 1 1.97 1.97 Z M 26.9 3.273 l -3.174 9.36 a 3.2 3.2 0 0 0 -0.4 0.125 l -3.135 -6.4 L 17.046 12.72 a 3.2 3.2 0 0 0 -0.419 -0.114 L 13.464 3.273 Z M 15.993 13.816 a 1.97 1.97 0 1 1 -1.97 1.97 a 1.972 1.972 0 0 1 1.97 -1.97 Z m -8.522 0.019 A 1.97 1.97 0 1 1 5.5 15.8 a 1.972 1.972 0 0 1 1.97 -1.97 Z m 19.217 7.034 a 3.82 3.82 0 0 1 -1.871 2.646 a 8.9 8.9 0 0 1 -3.223 0.869 c -0.632 0.091 -1.285 0.185 -1.924 0.343 a 24.587 24.587 0 0 0 -4.9 2.013 c -3.164 1.571 -5.9 2.928 -8.472 1.143 c -1.887 -1.308 -1.8 -3.728 -1.58 -5.054 A 12.82 12.82 0 0 1 6 19.376 c 0.092 -0.189 0.182 -0.375 0.27 -0.559 a 3.215 3.215 0 0 0 0.838 0.21 a 3.965 3.965 0 0 0 2.1 4.655 l 0.245 0.126 l 0.259 -0.092 a 11.029 11.029 0 0 0 3.875 -2.4 a 12.078 12.078 0 0 0 1.918 -2.319 a 3.241 3.241 0 0 0 2.64 -5.627 l 2.038 -4.121 l 2.059 4.2 a 3.24 3.24 0 0 0 4.088 5 a 3.957 3.957 0 0 1 0.355 2.422 Z" stroke-linecap="round" />
</g></g></g></svg>