<?xml version="1.0" encoding="UTF-8" standalone="no" ?>
<!DOCTYPE svg PUBLIC "-//W3C//DTD SVG 1.1//EN" "http://www.w3.org/Graphics/SVG/1.1/DTD/svg11.dtd">
<svg xmlns="http://www.w3.org/2000/svg" xmlns:xlink="http://www.w3.org/1999/xlink" version="1.1" width="1080" height="1080" viewBox="0 0 1080 1080" xml:space="preserve">
<desc>Created with Fabric.js 3.6.6</desc>
<g transform="matrix(1.91 0 0 1.91 539.99 539.68)"><g><g transform="matrix(4.19 0 0 4.19 -166.21 108.94)">
<path style="stroke: none; stroke-width: 1; stroke-dasharray: none; stroke-linecap: butt; stroke-dashoffset: 0; stroke-linejoin: miter; stroke-miterlimit: 4; fill: rgb(93,135,161); fill-rule: nonzero; opacity: 1;"  transform=" translate(-35.15, -102.18)" d="M 40.054 113.583 h -5.175 c -0.183 -8.735 -0.687 -16.947 -1.511 -24.642 h -0.046 l -7.879 24.642 h -3.94 l -7.832 -24.642 h -0.045 c -0.581 7.388 -0.947 15.602 -1.099 24.642 H 7.81 c 0.304 -10.993 1.068 -21.299 2.289 -30.919 h 6.414 l 7.465 22.719 h 0.046 l 7.511 -22.719 h 6.137 c 1.344 11.268 2.138 21.575 2.382 30.919 M 62.497 90.771 c -2.107 11.434 -4.887 19.742 -8.337 24.928 c -2.688 3.992 -5.633 5.99 -8.84 5.99 c -0.855 0 -1.91 -0.258 -3.16 -0.77 v -2.757 c 0.611 0.088 1.328 0.138 2.152 0.138 c 1.498 0 2.702 -0.412 3.62 -1.238 c 1.098 -1.006 1.647 -2.137 1.647 -3.388 c 0 -0.858 -0.428 -2.612 -1.282 -5.268 L 42.618 90.77 h 5.084 l 4.076 13.19 c 0.916 2.995 1.298 5.086 1.145 6.277 c 2.229 -5.953 3.786 -12.444 4.673 -19.468 h 4.901 v 0.002 z" stroke-linecap="round" /></g><g transform="matrix(4.19 0 0 4.19 99.18 99.84)"  ><path style="stroke: none; stroke-width: 1; stroke-dasharray: none; stroke-linecap: butt; stroke-dashoffset: 0; stroke-linejoin: miter; stroke-miterlimit: 4; fill: rgb(248,152,29); fill-rule: nonzero; opacity: 1;"  transform=" translate(-98.57, -100)" d="M 131.382 113.583 h -14.7 V 82.664 h 4.945 v 27.113 h 9.755 v 3.806 z M 112.834 114.33 l -5.684 -2.805 c 0.504 -0.414 0.986 -0.862 1.42 -1.381 c 2.416 -2.838 3.621 -7.035 3.621 -12.594 c 0 -10.229 -4.014 -15.346 -12.045 -15.346 c -3.938 0 -7.01 1.298 -9.207 3.895 c -2.414 2.84 -3.619 7.022 -3.619 12.551 c 0 5.435 1.068 9.422 3.205 11.951 c 1.955 2.291 4.902 3.438 8.843 3.438 c 1.47 0 2.819 -0.18 4.048 -0.543 l 7.4 4.308 l 2.018 -3.474 z m -18.413 -6.934 c -1.252 -2.014 -1.878 -5.248 -1.878 -9.707 c 0 -7.785 2.365 -11.682 7.1 -11.682 c 2.475 0 4.289 0.932 5.449 2.792 c 1.25 2.017 1.879 5.222 1.879 9.619 c 0 7.849 -2.367 11.774 -7.099 11.774 c -2.476 0.001 -4.29 -0.928 -5.451 -2.796 M 85.165 105.013 c 0 2.622 -0.962 4.773 -2.884 6.458 c -1.924 1.678 -4.504 2.519 -7.737 2.519 c -3.024 0 -5.956 -0.966 -8.794 -2.888 l 1.329 -2.655 c 2.442 1.223 4.653 1.831 6.638 1.831 c 1.863 0 3.319 -0.413 4.375 -1.232 c 1.055 -0.822 1.684 -1.975 1.684 -3.433 c 0 -1.837 -1.281 -3.407 -3.631 -4.722 c -2.167 -1.19 -6.501 -3.678 -6.501 -3.678 c -2.349 -1.712 -3.525 -3.55 -3.525 -6.578 c 0 -2.506 0.877 -4.529 2.632 -6.068 c 1.757 -1.545 4.024 -2.315 6.803 -2.315 c 2.87 0 5.479 0.769 7.829 2.291 l -1.192 2.656 c -2.01 -0.854 -3.994 -1.281 -5.951 -1.281 c -1.585 0 -2.809 0.381 -3.66 1.146 c -0.858 0.762 -1.387 1.737 -1.387 2.933 c 0 1.828 1.308 3.418 3.722 4.759 c 2.196 1.192 6.638 3.723 6.638 3.723 c 2.409 1.709 3.612 3.53 3.612 6.534" stroke-linecap="round" /></g><g transform="matrix(4.19 0 0 4.19 165.71 -77.77)"  ><path style="stroke: none; stroke-width: 1; stroke-dasharray: none; stroke-linecap: butt; stroke-dashoffset: 0; stroke-linejoin: miter; stroke-miterlimit: 4; fill: rgb(93,135,161); fill-rule: nonzero; opacity: 1;"  transform=" translate(-114.46, -57.56)" d="M 137.59 72.308 c -2.99 -0.076 -5.305 0.225 -7.248 1.047 c -0.561 0.224 -1.453 0.224 -1.531 0.933 c 0.303 0.3 0.338 0.784 0.601 1.198 c 0.448 0.747 1.229 1.752 1.942 2.276 c 0.783 0.6 1.569 1.194 2.393 1.717 c 1.453 0.899 3.1 1.422 4.516 2.318 c 0.825 0.521 1.645 1.195 2.471 1.756 c 0.406 0.299 0.666 0.784 1.193 0.971 v -0.114 c -0.264 -0.336 -0.339 -0.822 -0.598 -1.196 l -1.122 -1.082 c -1.084 -1.456 -2.431 -2.727 -3.884 -3.771 c -1.196 -0.824 -3.812 -1.944 -4.297 -3.322 l -0.076 -0.076 c 0.822 -0.077 1.797 -0.375 2.578 -0.604 c 1.271 -0.335 2.43 -0.259 3.734 -0.594 c 0.6 -0.15 1.195 -0.338 1.797 -0.523 v -0.337 c -0.676 -0.673 -1.158 -1.567 -1.869 -2.203 c -1.902 -1.643 -3.998 -3.25 -6.164 -4.595 c -1.16 -0.749 -2.652 -1.231 -3.887 -1.868 c -0.445 -0.225 -1.195 -0.336 -1.457 -0.71 c -0.67 -0.822 -1.047 -1.904 -1.533 -2.877 c -1.08 -2.053 -2.129 -4.331 -3.061 -6.502 c -0.674 -1.456 -1.084 -2.91 -1.906 -4.257 c -3.85 -6.35 -8.031 -10.196 -14.457 -13.971 c -1.381 -0.786 -3.024 -1.121 -4.779 -1.533 l -2.803 -0.148 c -0.598 -0.262 -1.197 -0.973 -1.719 -1.309 c -2.132 -1.344 -7.621 -4.257 -9.189 -0.411 c -1.01 2.431 1.494 4.821 2.354 6.054 c 0.635 0.856 1.458 1.83 1.902 2.802 c 0.263 0.635 0.337 1.309 0.6 1.98 c 0.598 1.644 1.157 3.473 1.943 5.007 c 0.41 0.782 0.857 1.604 1.381 2.312 c 0.3 0.414 0.822 0.597 0.936 1.272 c -0.521 0.744 -0.562 1.867 -0.861 2.801 c -1.344 4.221 -0.819 9.45 1.086 12.552 c 0.596 0.934 2.018 2.99 3.92 2.202 c 1.684 -0.672 1.311 -2.801 1.795 -4.668 c 0.111 -0.451 0.038 -0.747 0.262 -1.043 v 0.073 c 0.521 1.045 1.047 2.052 1.53 3.1 c 1.159 1.829 3.177 3.735 4.858 5.002 c 0.895 0.676 1.604 1.832 2.725 2.245 V 74.1 h -0.074 c -0.227 -0.335 -0.559 -0.485 -0.857 -0.745 c -0.674 -0.673 -1.42 -1.495 -1.943 -2.241 c -1.566 -2.093 -2.952 -4.41 -4.182 -6.801 c -0.602 -1.16 -1.121 -2.428 -1.606 -3.586 c -0.226 -0.447 -0.226 -1.121 -0.601 -1.346 c -0.562 0.821 -1.381 1.532 -1.791 2.538 c -0.711 1.609 -0.785 3.588 -1.049 5.646 l -0.147 0.072 c -1.19 -0.299 -1.604 -1.53 -2.056 -2.575 c -1.119 -2.654 -1.307 -6.914 -0.336 -9.976 c 0.26 -0.783 1.385 -3.249 0.936 -3.995 c -0.225 -0.715 -0.973 -1.122 -1.383 -1.685 c -0.482 -0.708 -1.01 -1.604 -1.346 -2.39 c -0.896 -2.091 -1.347 -4.408 -2.312 -6.498 c -0.451 -0.974 -1.234 -1.982 -1.868 -2.879 c -0.712 -1.008 -1.495 -1.718 -2.058 -2.913 c -0.186 -0.411 -0.447 -1.083 -0.148 -1.53 c 0.073 -0.3 0.225 -0.412 0.523 -0.487 c 0.484 -0.409 1.867 0.111 2.352 0.336 c 1.385 0.56 2.543 1.083 3.699 1.867 c 0.523 0.375 1.084 1.085 1.755 1.272 h 0.786 c 1.193 0.26 2.538 0.072 3.661 0.41 c 1.979 0.636 3.772 1.569 5.38 2.576 c 4.893 3.103 8.928 7.512 11.652 12.778 c 0.447 0.858 0.637 1.644 1.045 2.539 c 0.787 1.832 1.76 3.7 2.541 5.493 c 0.785 1.755 1.533 3.547 2.654 5.005 c 0.559 0.784 2.805 1.195 3.812 1.606 c 0.745 0.335 1.905 0.633 2.577 1.044 c 1.271 0.783 2.537 1.682 3.732 2.543 c 0.595 0.448 2.465 1.382 2.576 2.13 M 99.484 39.844 a 5.82 5.82 0 0 0 -1.529 0.188 v 0.075 h 0.072 c 0.301 0.597 0.824 1.011 1.197 1.532 c 0.301 0.599 0.562 1.193 0.857 1.791 l 0.072 -0.074 c 0.527 -0.373 0.789 -0.971 0.789 -1.868 c -0.227 -0.264 -0.262 -0.522 -0.451 -0.784 c -0.22 -0.374 -0.705 -0.56 -1.007 -0.86" stroke-linecap="round" />
</g><g transform="matrix(4.19 0 0 4.19 263.63 148.72)"  >
<path style="stroke: none; stroke-width: 1; stroke-dasharray: none; stroke-linecap: butt; stroke-dashoffset: 0; stroke-linejoin: miter; stroke-miterlimit: 4; fill: rgb(248,152,29); fill-rule: nonzero; opacity: 1;"  transform=" translate(-137.86, -111.68)" d="M 141.148 113.578 h 0.774 v -3.788 h -1.161 l -0.947 2.585 l -1.029 -2.585 h -1.118 v 3.788 h 0.731 v -2.882 h 0.041 l 1.078 2.882 h 0.557 l 1.074 -2.882 v 2.882 z m -6.235 0 h 0.819 v -3.146 h 1.072 v -0.643 h -3.008 v 0.643 h 1.115 l 0.002 3.146 z" stroke-linecap="round" />
</g></g></g></svg>