<?xml version="1.0" encoding="UTF-8" standalone="no" ?>
<!DOCTYPE svg PUBLIC "-//W3C//DTD SVG 1.1//EN" "http://www.w3.org/Graphics/SVG/1.1/DTD/svg11.dtd">
<svg xmlns="http://www.w3.org/2000/svg" xmlns:xlink="http://www.w3.org/1999/xlink" version="1.1" width="1080" height="1080" viewBox="0 0 1080 1080" xml:space="preserve">
<g transform="matrix(1.95 0 0 1.95 539.74 539.99)">
<path style="stroke: none; stroke-width: 1; stroke-dasharray: none; stroke-linecap: butt; stroke-dashoffset: 0; stroke-linejoin: miter; stroke-miterlimit: 4; fill: rgb(109,179,63); fill-rule: nonzero; opacity: 1;"  transform=" translate(-255.05, -228.9)" d="M 503.5 201.4 L 403 27.5 C 394.3 12.4 372.9 0 355.4 0 H 154.6 c -17.4 0 -38.9 12.4 -47.6 27.5 L 6.6 201.4 c -8.7 15.1 -8.7 39.8 0 54.9 l 100.4 174 c 8.7 15.1 30.1 27.5 47.6 27.5 h 200.9 c 17.4 0 38.8 -12.4 47.6 -27.5 l 100.4 -174 c 8.7 -15.1 8.7 -39.8 0 -54.9 z M 233.3 96.2 c 0 -11.4 9.3 -20.7 20.7 -20.7 c 11.4 0 20.7 9.3 20.7 20.7 v 123.7 c 0 11.4 -9.3 20.7 -20.7 20.7 c -11.4 0 -20.7 -9.3 -20.7 -20.7 V 96.2 z M 254 360.3 c -77.4 0 -140.4 -63 -140.4 -140.4 c 0.1 -44.4 21.1 -86.1 56.7 -112.7 c 8.2 -6.1 19.7 -4.4 25.8 3.8 s 4.4 19.7 -3.8 25.8 c -45.9 34.1 -55.5 99 -21.4 144.9 s 99 55.5 144.9 21.4 c 26.3 -19.5 41.8 -50.4 41.8 -83.2 c -0.1 -32.9 -15.7 -63.8 -42.2 -83.4 c -8.2 -6 -9.9 -17.6 -3.9 -25.8 s 17.6 -9.9 25.8 -3.9 c 35.9 26.5 57 68.5 57.1 113.1 c 0 77.5 -63 140.4 -140.4 140.4 z" stroke-linecap="round"/>
</g></svg>