<?xml version="1.0" encoding="UTF-8" standalone="no" ?>
<!DOCTYPE svg PUBLIC "-//W3C//DTD SVG 1.1//EN" "http://www.w3.org/Graphics/SVG/1.1/DTD/svg11.dtd">
<svg xmlns="http://www.w3.org/2000/svg" xmlns:xlink="http://www.w3.org/1999/xlink" version="1.1" width="1080" height="1080" viewBox="0 0 1080 1080" xml:space="preserve">
<desc>Created with Fabric.js 3.6.6</desc>
<g transform="matrix(37.74 0 0 37.74 540.25 540.23)">
<path style="stroke: none; stroke-width: 1; stroke-dasharray: none; stroke-linecap: butt; stroke-dashoffset: 0; stroke-linejoin: miter; stroke-miterlimit: 4; fill: rgb(17,114,184); fill-rule: nonzero; opacity: 1;"  transform=" translate(-16, -17)" d="M 6 28 L 4 3 H 28 L 26 28 L 16 31 L 6 28 Z" stroke-linecap="round" />
</g>
<g transform="matrix(37.74 0 0 37.74 728.9 549.65)">
<path style="stroke: none; stroke-width: 1; stroke-dasharray: none; stroke-linecap: butt; stroke-dashoffset: 0; stroke-linejoin: miter; stroke-miterlimit: 4; fill: rgb(51,170,221); fill-rule: nonzero; opacity: 1;"  transform=" translate(-21, -17.25)" d="M 26 5 H 16 V 29.5 L 24 27 L 26 5 Z" stroke-linecap="round" />
</g>
<g transform="matrix(37.74 0 0 37.74 549.66 549.63)">
<path style="stroke: none; stroke-width: 1; stroke-dasharray: none; stroke-linecap: butt; stroke-dashoffset: 0; stroke-linejoin: miter; stroke-miterlimit: 4; fill: rgb(255,255,255); fill-rule: nonzero; opacity: 1;"  transform=" translate(-16.25, -17.25)" d="M 19.5 17.5 H 9.5 L 9 14 L 17 11.5 H 9 L 8.5 8.5 H 24 L 23.5 12 L 17 14.5 H 23 L 22 24 L 16 26 L 10 24 L 9.5 19 H 12.5 L 13 21.5 L 16 22.5 L 19 21.5 L 19.5 17.5 Z" stroke-linecap="round" />
</g>
</svg>