<?xml version="1.0" encoding="UTF-8" standalone="no" ?>
<!DOCTYPE svg PUBLIC "-//W3C//DTD SVG 1.1//EN" "http://www.w3.org/Graphics/SVG/1.1/DTD/svg11.dtd">
<svg xmlns="http://www.w3.org/2000/svg" xmlns:xlink="http://www.w3.org/1999/xlink" version="1.1" width="1080" height="1080" viewBox="0 0 1080 1080" xml:space="preserve">
<desc>Created with Fabric.js 3.6.6</desc>
<defs>
</defs>
<g transform="matrix(1 0 0 1 540.5 537.64)"  >
<rect style="stroke: none; stroke-width: 1; stroke-dasharray: none; stroke-linecap: butt; stroke-dashoffset: 0; stroke-linejoin: miter; stroke-miterlimit: 4; fill: rgb(255,255,255); fill-rule: nonzero; opacity: 1; visibility: hidden;"  x="-540" y="-540" rx="0" ry="0" width="1080" height="1080" />
</g>
<g transform="matrix(2.84 0 0 2.84 540.5 537.63)"  >
<g style=""   >
		<g transform="matrix(1 0 0 1 57.26 0)"  >
<path style="stroke: none; stroke-width: 1; stroke-dasharray: none; stroke-linecap: butt; stroke-dashoffset: 0; stroke-linejoin: miter; stroke-miterlimit: 4; fill: rgb(22,151,246); fill-rule: nonzero; opacity: 1;"  transform=" translate(-273.26, -191.39)" d="M 219.897 103.248 L 146.523 230.363 L 216 350.772 L 308.021 191.386 L 400 32 L 261.005 32 L 219.897 103.248 Z" stroke-linecap="round" />
</g>
		<g transform="matrix(1 0 0 1 -87.16 -75.51)"  >
<path style="stroke: none; stroke-width: 1; stroke-dasharray: none; stroke-linecap: butt; stroke-dashoffset: 0; stroke-linejoin: miter; stroke-miterlimit: 4; fill: rgb(174,221,255); fill-rule: nonzero; opacity: 1;"  transform=" translate(-128.84, -115.88)" d="M 124.021 191.386 L 128.84 199.768 L 197.478 80.8258 L 225.68 32 L 216 32 L 32 32 L 124.021 191.386 Z" stroke-linecap="round" />
</g>
		<g transform="matrix(1 0 0 1 -7.85 0)"  >
<path style="stroke: none; stroke-width: 1; stroke-dasharray: none; stroke-linecap: butt; stroke-dashoffset: 0; stroke-linejoin: miter; stroke-miterlimit: 4; fill: rgb(24,103,192); fill-rule: nonzero; opacity: 1;"  transform=" translate(-208.15, -191.39)" d="M 261.005 32 C 295.785 146.458 216 350.772 216 350.772 L 146.523 230.363 L 261.005 32 Z" stroke-linecap="round" />
</g>
		<g transform="matrix(1 0 0 1 -42.8 -75.51)"  >
<path style="stroke: none; stroke-width: 1; stroke-dasharray: none; stroke-linecap: butt; stroke-dashoffset: 0; stroke-linejoin: miter; stroke-miterlimit: 4; fill: rgb(123,198,255); fill-rule: nonzero; opacity: 1;"  transform=" translate(-173.2, -115.88)" d="M 225.68 32 C 79.1426 32 128.84 199.768 128.84 199.768 L 225.68 32 Z" stroke-linecap="round" />
</g>
</g>
</g>
</svg>